<?xml version="1.0" encoding="UTF-8"?>
<svg xmlns="http://www.w3.org/2000/svg" xmlns:xlink="http://www.w3.org/1999/xlink" width="256pt" height="256pt" viewBox="0 0 256 256" version="1.1">
<g id="surface1">
<path style=" stroke:none;fill-rule:nonzero;fill:rgb(17.647059%,20%,48.627451%);fill-opacity:1;" d="M 103.3125 0.367188 C 103.203125 0.546875 102.582031 0.730469 101.960938 0.730469 C 101.304688 0.730469 100.316406 0.878906 99.695312 1.097656 C 99.070312 1.28125 96.511719 2.085938 93.988281 2.890625 C 79.617188 7.386719 66.523438 14.703125 54.675781 24.90625 C 48.75 29.988281 40.8125 38.507812 37.011719 43.886719 C 31.632812 51.417969 26.625 60.234375 23.257812 68.023438 C 22.273438 70.328125 19.601562 78.007812 19.015625 80.273438 C 18.835938 80.859375 18.46875 82.285156 18.175781 83.382812 C 17.226562 86.855469 15.800781 94.023438 15.398438 97.460938 C 14.371094 106.058594 14.261719 107.738281 14.261719 112.859375 C 14.261719 120.464844 14.996094 127.707031 16.714844 136.410156 C 17.1875 138.933594 17.738281 141.457031 17.921875 142.078125 C 18.101562 142.664062 18.613281 144.421875 19.015625 145.921875 C 25.671875 169.214844 40.996094 191.378906 60.527344 205.933594 C 69.558594 212.699219 78.007812 217.378906 88.464844 221.511719 C 90.183594 222.171875 91.832031 222.71875 92.195312 222.71875 C 92.5625 222.71875 92.964844 222.867188 93.074219 223.085938 C 93.183594 223.269531 93.695312 223.453125 94.171875 223.453125 C 94.648438 223.453125 95.160156 223.597656 95.269531 223.816406 C 95.378906 224 95.816406 224.183594 96.21875 224.183594 C 96.585938 224.183594 97.207031 224.328125 97.574219 224.511719 C 97.902344 224.695312 99.585938 225.132812 101.304688 225.460938 C 105.984375 226.339844 106.058594 226.378906 106.058594 226.707031 C 106.058594 226.890625 84.882812 227.035156 58.808594 227.035156 L 11.519531 227.035156 L 11.410156 241.519531 L 11.335938 256 L 244.664062 256 L 244.589844 241.519531 L 244.480469 227.070312 L 197.558594 227.035156 C 170.570312 227.035156 150.566406 226.890625 150.453125 226.707031 C 150.34375 226.523438 150.382812 226.378906 150.492188 226.378906 C 150.636719 226.378906 152.429688 226.046875 154.441406 225.644531 C 157.878906 224.949219 159.5625 224.511719 161.460938 223.816406 C 161.863281 223.671875 162.851562 223.339844 163.65625 223.121094 C 175.359375 219.539062 190.792969 210.90625 200.960938 202.238281 C 206.554688 197.484375 215.515625 187.867188 220.015625 181.761719 C 224.476562 175.6875 228.902344 167.9375 232.996094 158.902344 C 234.128906 156.453125 236.433594 149.90625 238.042969 144.640625 C 240.421875 136.921875 242.46875 122.148438 242.46875 113.003906 C 242.46875 103.9375 240.421875 89.34375 238.042969 81.371094 C 237.019531 77.933594 234.789062 71.460938 233.984375 69.484375 C 233.765625 68.972656 233.472656 68.242188 233.324219 67.839844 C 232.742188 66.414062 227.839844 56.464844 226.707031 54.492188 C 224.839844 51.273438 219.320312 43.226562 216.613281 39.863281 C 208.824219 30.136719 196.351562 19.273438 186.332031 13.53125 C 179.785156 9.765625 173.605469 6.691406 169.324219 5.15625 C 168.628906 4.902344 167.714844 4.535156 167.3125 4.351562 C 166.507812 4.023438 159.378906 1.792969 157.039062 1.132812 C 156.195312 0.914062 155.097656 0.730469 154.550781 0.730469 C 154.039062 0.730469 153.601562 0.546875 153.601562 0.367188 C 153.601562 0.109375 145.003906 0 128.585938 0 C 112.273438 0 103.460938 0.109375 103.3125 0.367188 Z M 127.160156 10.09375 C 128.769531 11.265625 129.425781 12.984375 129.425781 15.910156 C 129.390625 20.261719 127.816406 21.980469 123.5 22.34375 C 122.039062 22.453125 120.757812 22.492188 120.648438 22.453125 C 120.320312 22.273438 119.84375 9.984375 120.136719 9.507812 C 120.320312 9.214844 121.378906 9.105469 123.28125 9.214844 C 125.441406 9.289062 126.355469 9.507812 127.160156 10.09375 Z M 134.730469 10.238281 C 134.691406 10.753906 134.546875 13.054688 134.398438 15.398438 L 134.144531 19.675781 L 135.09375 20.296875 C 136.265625 21.066406 137.765625 20.773438 138.238281 19.640625 C 138.421875 19.199219 138.714844 16.785156 138.863281 14.261719 L 139.152344 9.691406 L 141.347656 9.691406 L 141.277344 14.410156 C 141.164062 19.96875 140.800781 21.359375 139.191406 22.34375 C 136.851562 23.769531 132.863281 22.820312 132.023438 20.625 C 131.695312 19.785156 131.875 10.753906 132.242188 9.582031 C 132.316406 9.289062 132.828125 9.144531 133.558594 9.214844 C 134.582031 9.324219 134.765625 9.472656 134.730469 10.238281 Z M 117.578125 11.007812 L 117.578125 12.25 L 115.382812 12.507812 C 112.421875 12.875 112.273438 12.984375 112.273438 14.300781 L 112.273438 15.433594 L 114.394531 15.285156 L 116.480469 15.175781 L 116.480469 16.273438 C 116.480469 17.335938 116.40625 17.371094 114.652344 17.554688 L 112.824219 17.738281 L 112.933594 19.199219 C 113.003906 20.003906 113.152344 20.773438 113.296875 20.917969 C 113.445312 21.066406 114.613281 21.027344 115.929688 20.847656 C 118.527344 20.554688 118.96875 20.699219 118.785156 21.980469 C 118.675781 22.710938 118.34375 22.855469 115.75 23.296875 C 114.140625 23.589844 112.347656 23.734375 111.726562 23.699219 L 110.628906 23.589844 L 110.371094 20.113281 C 110.261719 18.210938 109.96875 15.398438 109.789062 13.898438 C 109.605469 12.398438 109.53125 11.042969 109.675781 10.898438 C 109.789062 10.753906 111.359375 10.460938 113.152344 10.277344 C 114.945312 10.058594 116.480469 9.800781 116.589844 9.691406 C 117.101562 9.214844 117.578125 9.835938 117.578125 11.007812 Z M 151.699219 11.703125 C 153.417969 12.472656 153.527344 12.726562 152.539062 13.933594 C 151.882812 14.773438 151.808594 14.773438 151.148438 14.152344 C 150.234375 13.347656 148.042969 13.347656 147.308594 14.152344 C 144.457031 17.40625 145.226562 22.308594 148.589844 22.308594 C 149.246094 22.308594 149.980469 22.125 150.234375 21.871094 C 150.820312 21.285156 151.84375 22.199219 151.699219 23.1875 C 151.441406 24.90625 147.417969 25.34375 145.371094 23.882812 C 142.261719 21.613281 142.261719 15.800781 145.40625 12.652344 C 147.273438 10.824219 149.101562 10.53125 151.699219 11.703125 Z M 101.011719 13.53125 C 101.011719 13.933594 101.046875 14.445312 101.082031 14.703125 C 101.121094 14.921875 100.386719 15.324219 99.472656 15.578125 C 96.292969 16.421875 95.890625 16.675781 96.109375 17.738281 C 96.328125 19.054688 96.988281 19.199219 98.816406 18.503906 C 100.5 17.808594 101.082031 18.066406 100.863281 19.417969 C 100.789062 20.042969 100.386719 20.371094 99.402344 20.664062 C 97.460938 21.210938 97.207031 21.578125 97.683594 23.078125 C 98.265625 24.832031 98.488281 24.976562 99.695312 24.320312 C 100.277344 24.027344 100.972656 23.769531 101.230469 23.769531 C 101.484375 23.769531 101.996094 23.550781 102.398438 23.332031 C 102.875 23.039062 103.242188 23.003906 103.460938 23.222656 C 104.082031 23.84375 104.082031 25.308594 103.496094 25.601562 C 101.996094 26.332031 96.804688 27.832031 96.585938 27.539062 C 96.4375 27.390625 96.109375 26.515625 95.855469 25.601562 C 95.5625 24.6875 95.230469 23.550781 95.085938 23.039062 C 94.9375 22.527344 94.5 21.136719 94.171875 19.929688 C 93.84375 18.722656 93.402344 17.296875 93.183594 16.75 C 92.707031 15.507812 93 14.628906 93.878906 14.59375 C 94.246094 14.59375 95.597656 14.226562 96.914062 13.75 C 99.984375 12.617188 100.9375 12.582031 101.011719 13.53125 Z M 161.316406 15.398438 C 161.460938 16.089844 161.753906 19.089844 161.976562 22.089844 C 162.195312 25.050781 162.488281 27.648438 162.597656 27.832031 C 162.925781 28.378906 161.644531 28.636719 160.695312 28.234375 C 160 27.902344 159.816406 27.539062 159.816406 26.515625 C 159.816406 25.453125 159.632812 25.160156 158.828125 24.832031 C 158.246094 24.574219 157.441406 24.246094 157 24.027344 C 156.125 23.625 155.0625 24.171875 155.0625 25.089844 C 155.0625 25.34375 154.878906 25.671875 154.695312 25.78125 C 154.183594 26.113281 152.136719 25.636719 152.136719 25.199219 C 152.136719 24.320312 160.144531 13.824219 160.660156 14.007812 C 160.878906 14.078125 161.207031 14.703125 161.316406 15.398438 Z M 167.058594 16.238281 C 167.605469 16.53125 168.628906 17.003906 169.324219 17.296875 C 170.019531 17.589844 171.335938 18.175781 172.25 18.542969 C 173.164062 18.945312 174.191406 19.382812 174.554688 19.492188 C 175.066406 19.675781 175.175781 19.96875 174.996094 20.554688 C 174.519531 22.050781 174.152344 22.164062 172.433594 21.246094 C 170.863281 20.40625 170.058594 20.445312 170.058594 21.359375 C 170.058594 21.796875 169.105469 24.355469 168.046875 26.878906 C 167.753906 27.464844 167.425781 28.453125 167.277344 29.074219 C 166.949219 30.464844 166.546875 30.71875 165.449219 30.207031 C 164.535156 29.769531 164.351562 28.929688 164.902344 27.867188 C 165.121094 27.539062 165.886719 25.601562 166.65625 23.589844 C 167.425781 21.613281 168.082031 19.859375 168.15625 19.710938 C 168.300781 19.417969 166.144531 18.285156 165.449219 18.285156 C 164.679688 18.285156 164.460938 17.554688 164.972656 16.601562 C 165.484375 15.578125 165.742188 15.542969 167.058594 16.238281 Z M 90.40625 17.042969 C 90.515625 17.152344 90.515625 17.664062 90.367188 18.210938 C 90.148438 19.015625 89.929688 19.164062 89.125 19.089844 C 88.429688 18.980469 87.808594 19.273438 87.039062 20.078125 C 86.125 20.992188 85.941406 21.429688 85.941406 22.929688 C 85.941406 24.90625 86.820312 26.660156 88.285156 27.648438 C 89.527344 28.453125 90.988281 28.085938 92.160156 26.660156 L 93.109375 25.527344 L 93.988281 26.257812 L 94.902344 26.988281 L 94.136719 28.050781 C 92.890625 29.734375 90.769531 30.792969 88.90625 30.609375 C 86.820312 30.390625 85.613281 29.441406 84.40625 27.027344 C 82.503906 23.257812 83.199219 19.710938 86.273438 17.664062 C 87.40625 16.894531 89.890625 16.492188 90.40625 17.042969 Z M 178.324219 21.429688 C 179.125 21.980469 179.164062 22.125 178.722656 22.820312 C 178.46875 23.222656 177.957031 24.246094 177.664062 25.050781 C 177.335938 25.855469 176.675781 27.429688 176.164062 28.527344 C 175.6875 29.621094 174.921875 31.304688 174.519531 32.257812 C 174.078125 33.242188 173.605469 34.011719 173.457031 34.011719 C 173.3125 34.011719 172.800781 33.71875 172.324219 33.351562 L 171.445312 32.695312 L 172.472656 30.5 C 172.984375 29.332031 174.007812 27.136719 174.664062 25.710938 C 175.359375 24.246094 175.910156 22.929688 175.910156 22.746094 C 175.910156 22.417969 176.96875 20.847656 177.226562 20.847656 C 177.335938 20.847656 177.808594 21.101562 178.324219 21.429688 Z M 79.761719 22.199219 C 79.980469 22.785156 81.226562 25.417969 82.542969 28.085938 C 85.539062 34.085938 85.429688 34.449219 81.296875 32.367188 C 79.726562 31.5625 77.96875 30.609375 77.421875 30.246094 C 75.996094 29.257812 75.335938 29.914062 76.324219 31.339844 C 76.691406 31.890625 77.421875 33.171875 77.898438 34.121094 L 78.773438 35.875 L 78.007812 36.644531 C 77.566406 37.046875 77.054688 37.304688 76.875 37.15625 C 76.652344 37.011719 75.226562 34.339844 73.691406 31.195312 C 71.535156 26.808594 71.023438 25.417969 71.386719 25.199219 C 72.082031 24.757812 71.972656 24.6875 75.921875 26.84375 C 77.898438 27.902344 79.652344 28.671875 79.800781 28.5625 C 79.945312 28.414062 79.433594 27.097656 78.628906 25.601562 C 76.945312 22.417969 76.875 22.015625 78.007812 21.578125 C 79.214844 21.101562 79.359375 21.136719 79.761719 22.199219 Z M 187.5 27.246094 C 188.890625 28.78125 189.074219 29.148438 189.074219 30.71875 C 189.074219 31.707031 188.929688 32.621094 188.707031 32.730469 C 188.527344 32.839844 188.34375 33.242188 188.34375 33.574219 C 188.304688 34.558594 185.929688 37.523438 184.648438 38.179688 C 182.417969 39.277344 180.371094 38.800781 178.285156 36.570312 C 177.296875 35.546875 177.1875 35.21875 177.226562 33.171875 C 177.261719 31.523438 177.480469 30.5 178.066406 29.441406 C 179.894531 26.222656 181.539062 25.125 184.136719 25.34375 C 185.746094 25.492188 186.113281 25.710938 187.5 27.246094 Z M 68.972656 28.414062 C 69.230469 28.78125 69.484375 29.183594 69.484375 29.332031 C 69.484375 29.476562 68.5 30.355469 67.292969 31.269531 C 66.085938 32.183594 65.097656 33.0625 65.097656 33.207031 C 65.097656 33.351562 65.425781 33.863281 65.792969 34.339844 L 66.449219 35.21875 L 67.984375 34.011719 C 69.449219 32.839844 69.484375 32.804688 70.21875 33.460938 C 70.621094 33.828125 70.949219 34.265625 70.949219 34.414062 C 70.949219 34.558594 70.21875 35.21875 69.304688 35.839844 C 68.386719 36.460938 67.65625 37.082031 67.65625 37.230469 C 67.65625 37.375 68.132812 38.070312 68.71875 38.765625 L 69.777344 40.007812 L 71.863281 38.21875 L 73.949219 36.460938 L 74.640625 37.339844 C 75.007812 37.816406 75.300781 38.328125 75.226562 38.472656 C 75.191406 38.621094 73.726562 39.789062 71.972656 41.105469 L 68.789062 43.445312 L 65.390625 38.289062 C 63.523438 35.4375 61.988281 32.914062 61.988281 32.695312 C 61.988281 32.257812 67.585938 27.832031 68.167969 27.792969 C 68.351562 27.792969 68.71875 28.085938 68.972656 28.414062 Z M 194.414062 36.316406 C 194.414062 38.839844 194.523438 41.03125 194.632812 41.179688 C 194.78125 41.289062 195.695312 40.15625 196.71875 38.621094 C 197.777344 37.082031 198.730469 35.839844 198.910156 35.839844 C 199.09375 35.839844 199.605469 36.132812 200.046875 36.5 L 200.851562 37.15625 L 197.632812 41.546875 C 195.839844 43.957031 194.121094 46.335938 193.792969 46.8125 C 193.425781 47.359375 193.023438 47.578125 192.621094 47.433594 C 192.109375 47.25 192.074219 46.628906 192.257812 42.460938 C 192.511719 37.15625 192.292969 36.71875 190.71875 39.023438 C 190.207031 39.789062 189.402344 41.03125 188.890625 41.765625 C 187.832031 43.335938 187.648438 43.410156 186.515625 42.496094 L 185.671875 41.800781 L 187.867188 38.910156 C 189.074219 37.339844 190.757812 35 191.671875 33.71875 C 194.046875 30.316406 194.378906 30.609375 194.414062 36.316406 Z M 137.800781 32.367188 C 143.652344 33.132812 151.1875 34.851562 154.515625 36.207031 C 154.917969 36.351562 156.234375 36.863281 157.441406 37.339844 C 166.65625 40.851562 175.578125 46.628906 183.625 54.382812 C 190.5 61.039062 195 67.109375 199.496094 75.886719 C 203.082031 82.796875 205.09375 88.539062 206.957031 96.914062 C 208.785156 105.214844 208.785156 121.199219 206.996094 128.988281 C 205.789062 134.179688 205.675781 134.65625 204.652344 137.875 C 200.046875 152.539062 190.28125 166.910156 178.46875 176.492188 C 168.960938 184.171875 159.304688 189.039062 147.75 192 C 146.835938 192.21875 145.628906 192.546875 145.003906 192.730469 C 144.421875 192.914062 142.957031 193.171875 141.789062 193.316406 C 140.652344 193.425781 139.628906 193.644531 139.554688 193.792969 C 139.445312 193.9375 139.519531 194.78125 139.703125 195.65625 C 139.847656 196.570312 140.179688 198.765625 140.433594 200.59375 C 140.652344 202.386719 140.984375 204.875 141.164062 206.078125 C 141.347656 207.285156 141.675781 209.589844 141.898438 211.199219 C 142.117188 212.808594 142.445312 215.113281 142.628906 216.320312 C 143.835938 224.367188 144.089844 226.449219 143.945312 226.707031 C 143.835938 226.851562 136.742188 227 128.183594 227.035156 L 112.640625 227.035156 L 112.859375 224.988281 C 112.96875 223.816406 113.152344 222.5 113.261719 221.988281 C 113.371094 221.476562 113.589844 219.902344 113.773438 218.515625 C 114.394531 214.050781 114.796875 210.90625 115.164062 208.273438 C 115.347656 206.847656 115.785156 203.738281 116.113281 201.324219 C 116.445312 198.910156 116.847656 196.277344 117.027344 195.511719 C 117.210938 194.707031 117.285156 193.9375 117.210938 193.792969 C 117.101562 193.644531 116.078125 193.425781 114.945312 193.28125 C 111.871094 192.949219 108.652344 192.109375 103.132812 190.246094 C 91.210938 186.292969 80.96875 179.820312 71.789062 170.496094 C 67.035156 165.742188 62.757812 160.21875 59.722656 154.953125 C 57.378906 150.96875 54.710938 145.628906 53.796875 142.996094 C 53.539062 142.300781 53.175781 141.386719 52.992188 140.984375 C 52.589844 140.03125 51.273438 135.644531 50.6875 133.304688 C 50.25 131.585938 50.066406 130.78125 48.933594 125.074219 C 48.273438 121.820312 48.273438 104.558594 48.933594 101.304688 C 49.1875 99.984375 49.589844 98.011719 49.808594 96.914062 C 50.175781 95.085938 50.722656 92.890625 51.566406 89.78125 C 53.359375 83.199219 57.089844 75.191406 61.734375 68.023438 C 67.585938 58.988281 75.886719 50.722656 85.394531 44.507812 C 93 39.535156 104.046875 34.925781 111.359375 33.644531 C 112.785156 33.425781 114.503906 33.0625 115.238281 32.878906 C 115.96875 32.695312 117.285156 32.546875 118.164062 32.511719 C 119.039062 32.476562 120.171875 32.328125 120.6875 32.183594 C 122.292969 31.671875 133.449219 31.78125 137.800781 32.367188 Z M 62.828125 39.242188 C 64.292969 41.289062 65.863281 43.335938 66.304688 43.8125 C 67.144531 44.726562 66.960938 45.457031 65.683594 46.226562 C 65.171875 46.554688 64.914062 46.445312 64.4375 45.714844 C 63.671875 44.617188 59.902344 39.496094 58.40625 37.523438 L 57.308594 36.097656 L 58.332031 35.183594 C 59.320312 34.339844 59.429688 34.339844 59.792969 34.890625 C 59.976562 35.253906 61.367188 37.191406 62.828125 39.242188 Z M 55.953125 39.460938 C 56.503906 40.558594 56.394531 40.886719 55.332031 41.398438 C 53.722656 42.203125 52.882812 43.628906 53.175781 45.09375 C 53.503906 46.773438 55.808594 49.335938 57.234375 49.589844 C 58.625 49.847656 60.195312 48.675781 60.636719 47.105469 C 61 45.675781 61.441406 45.496094 62.539062 46.371094 C 63.339844 47.03125 63.339844 47.066406 62.71875 48.421875 C 62.355469 49.152344 61.402344 50.324219 60.597656 51.015625 C 58.695312 52.664062 56.722656 52.773438 54.675781 51.347656 C 51.894531 49.480469 50.835938 47.542969 50.835938 44.433594 C 50.835938 42.53125 50.90625 42.3125 52.589844 40.59375 C 54.492188 38.621094 55.332031 38.363281 55.953125 39.460938 Z M 210.175781 47.03125 C 210.285156 47.324219 209.847656 48.675781 209.1875 50.03125 C 208.53125 51.382812 207.175781 54.164062 206.152344 56.210938 C 205.164062 58.292969 204.214844 59.976562 204.070312 59.976562 C 203.921875 59.976562 203.519531 59.648438 203.152344 59.246094 C 202.570312 58.585938 202.53125 58.332031 202.898438 57.269531 C 203.554688 55.480469 203.445312 55.113281 202.058594 53.761719 C 200.921875 52.664062 200.667969 52.554688 200.046875 52.957031 C 198.984375 53.613281 198.328125 53.503906 197.707031 52.589844 C 196.828125 51.347656 196.972656 51.015625 198.875 50.503906 C 199.828125 50.210938 200.851562 49.847656 201.144531 49.699219 C 201.910156 49.296875 209.296875 46.480469 209.664062 46.480469 C 209.808594 46.445312 210.03125 46.703125 210.175781 47.03125 Z M 47.761719 48.457031 C 48.347656 49.371094 48.199219 50.101562 47.398438 50.101562 C 47.140625 50.101562 46.554688 50.503906 46.078125 51.015625 C 45.386719 51.785156 45.277344 52.113281 45.566406 52.589844 C 46.191406 53.539062 46.996094 53.539062 49.152344 52.625 C 51.308594 51.75 52.332031 51.820312 53.871094 53.066406 C 54.710938 53.722656 54.855469 54.089844 54.855469 55.808594 C 54.855469 57.636719 54.746094 57.890625 53.285156 59.429688 C 52.40625 60.34375 51.492188 61.074219 51.273438 61.074219 C 50.6875 61.074219 49.628906 59.355469 49.921875 58.878906 C 50.066406 58.660156 50.578125 58.332031 51.054688 58.148438 C 52.078125 57.746094 52.882812 56.285156 52.554688 55.441406 C 52.222656 54.636719 50.6875 54.710938 48.347656 55.589844 C 46.628906 56.246094 46.335938 56.285156 45.386719 55.808594 C 42.496094 54.273438 42.460938 50.945312 45.347656 48.492188 C 46.773438 47.324219 46.996094 47.324219 47.761719 48.457031 Z M 215.371094 54.308594 C 215.480469 55.003906 215.148438 56.320312 213.761719 60.597656 C 213.320312 62.023438 212.992188 63.304688 213.101562 63.414062 C 213.210938 63.523438 214.417969 62.683594 215.769531 61.585938 C 217.125 60.527344 218.40625 59.613281 218.585938 59.613281 C 218.808594 59.613281 219.246094 60.015625 219.574219 60.527344 C 220.234375 61.550781 220.78125 61 213.832031 66.195312 C 209.992188 69.046875 209.1875 69.375 209.1875 68.132812 C 209.1875 67.4375 209.847656 65.242188 210.324219 64.292969 C 210.503906 63.925781 210.652344 63.414062 210.652344 63.121094 C 210.652344 62.828125 210.980469 61.84375 211.382812 60.929688 C 211.785156 59.941406 211.929688 59.171875 211.710938 59.0625 C 211.527344 58.917969 210.542969 59.574219 209.519531 60.453125 C 208.492188 61.367188 207.25 62.316406 206.738281 62.574219 C 205.933594 63.011719 205.75 62.976562 205.3125 62.355469 C 205.019531 61.988281 204.800781 61.476562 204.800781 61.257812 C 204.800781 61.039062 206.738281 59.429688 209.117188 57.671875 C 211.492188 55.953125 213.6875 54.273438 213.941406 53.941406 C 214.527344 53.246094 215.1875 53.394531 215.371094 54.308594 Z M 38.398438 61 L 39.242188 61.695312 L 37.886719 63.964844 C 36.316406 66.632812 36.277344 67.035156 37.449219 67.804688 C 38.328125 68.351562 38.363281 68.316406 39.09375 67.070312 C 39.535156 66.378906 39.863281 65.535156 39.863281 65.242188 C 39.863281 64.367188 40.960938 64.21875 41.765625 64.988281 L 42.496094 65.71875 L 41.546875 67.253906 C 40.117188 69.523438 40.15625 69.59375 43.554688 71.386719 C 45.164062 72.191406 45.277344 72.667969 44.324219 73.875 L 43.628906 74.714844 L 41.398438 73.214844 C 40.191406 72.375 39.09375 71.679688 38.984375 71.679688 C 38.875 71.679688 37.484375 70.839844 35.839844 69.816406 L 32.914062 67.949219 L 33.863281 66.449219 C 34.378906 65.609375 35.292969 63.890625 35.914062 62.609375 C 36.5 61.367188 37.121094 60.34375 37.304688 60.34375 C 37.449219 60.34375 37.960938 60.636719 38.398438 61 Z M 223.230469 67.035156 C 223.742188 68.132812 224.183594 69.265625 224.183594 69.523438 C 224.183594 69.816406 224.328125 70.21875 224.511719 70.398438 C 225.132812 71.023438 224.21875 74.167969 223.085938 75.300781 C 221.769531 76.617188 219.027344 77.898438 217.601562 77.898438 C 215.40625 77.898438 213.46875 76.289062 211.96875 73.179688 C 210.945312 71.023438 210.761719 71.203125 217.417969 67.65625 C 219.027344 66.816406 220.597656 65.863281 220.890625 65.609375 C 221.769531 64.730469 222.246094 65.023438 223.230469 67.035156 Z M 37.046875 73.289062 C 41.765625 75.375 43.082031 80.054688 39.898438 83.417969 C 38.65625 84.699219 38.328125 84.847656 36.679688 84.847656 C 32.4375 84.847656 28.890625 81.808594 28.890625 78.191406 C 28.890625 76.507812 30.28125 73.910156 31.597656 73.105469 C 33.097656 72.191406 34.667969 72.230469 37.046875 73.289062 Z M 229.851562 83.96875 C 230.144531 84.664062 230.582031 86.199219 230.839844 87.40625 C 231.242188 89.492188 231.242188 89.5625 230.289062 90.808594 C 229.082031 92.378906 227.585938 92.816406 225.976562 92.015625 C 225.316406 91.683594 224.695312 91.429688 224.546875 91.429688 C 224.4375 91.429688 223.523438 92.488281 222.574219 93.804688 C 221.621094 95.121094 220.78125 96.183594 220.671875 96.183594 C 220.597656 96.183594 220.269531 95.671875 219.976562 95.050781 C 219.390625 93.953125 219.390625 93.914062 220.964844 91.941406 C 223.523438 88.648438 223.597656 88.503906 223.160156 88.0625 C 222.828125 87.734375 222.246094 87.84375 220.78125 88.429688 C 219.722656 88.867188 218.734375 89.234375 218.625 89.234375 C 218.476562 89.234375 218.113281 88.757812 217.820312 88.171875 C 217.378906 87.332031 217.34375 87.039062 217.710938 86.746094 C 217.964844 86.527344 220.304688 85.6875 222.902344 84.808594 C 225.535156 83.96875 227.804688 83.125 228.023438 82.980469 C 228.679688 82.359375 229.304688 82.6875 229.851562 83.96875 Z M 26.917969 91.246094 C 27.027344 91.539062 26.878906 92.855469 26.550781 94.207031 C 26.257812 95.5625 26.074219 96.804688 26.148438 96.949219 C 26.257812 97.0625 26.734375 97.28125 27.246094 97.351562 C 28.378906 97.574219 28.890625 96.804688 29.039062 94.792969 C 29.109375 93.550781 29.183594 93.441406 30.171875 93.441406 C 31.230469 93.441406 31.269531 93.476562 31.121094 94.902344 C 30.792969 98.265625 30.757812 98.195312 32.4375 98.304688 C 33.9375 98.414062 33.976562 98.414062 34.195312 97.023438 C 34.78125 93.332031 34.890625 93.074219 35.949219 92.964844 C 37.121094 92.816406 37.632812 93.734375 37.011719 94.757812 C 36.753906 95.121094 36.570312 95.964844 36.570312 96.621094 C 36.535156 97.28125 36.316406 98.632812 36.058594 99.65625 C 35.511719 101.707031 35.472656 101.707031 32.109375 100.972656 C 29.332031 100.351562 26.988281 99.875 25.308594 99.621094 C 24.429688 99.472656 23.625 99.183594 23.550781 98.925781 C 23.441406 98.707031 23.625 97.28125 23.953125 95.78125 C 24.246094 94.28125 24.503906 92.636719 24.503906 92.125 C 24.503906 91.613281 24.613281 91.0625 24.757812 90.953125 C 25.199219 90.476562 26.734375 90.695312 26.917969 91.246094 Z M 233.105469 98.011719 C 233.289062 99.328125 233.433594 101.191406 233.472656 102.21875 C 233.507812 103.9375 233.433594 104.046875 232.59375 104.046875 C 231.570312 104.046875 231.242188 103.167969 231.167969 100.097656 L 231.132812 98.339844 L 229.777344 98.449219 C 228.277344 98.558594 228.207031 98.742188 228.753906 101.375 C 228.972656 102.621094 228.9375 102.800781 228.167969 103.09375 C 227 103.535156 226.378906 102.730469 226.378906 100.71875 C 226.378906 99.839844 226.230469 99.070312 226.085938 98.960938 C 225.902344 98.851562 225.132812 99 224.328125 99.292969 C 223.304688 99.65625 222.9375 99.984375 223.011719 100.460938 C 223.050781 100.828125 223.230469 102.035156 223.414062 103.132812 C 223.597656 104.230469 223.671875 105.253906 223.5625 105.398438 C 223.339844 105.800781 221.695312 105.765625 221.476562 105.398438 C 221.332031 105.144531 220.855469 101.925781 220.414062 98.230469 C 220.304688 97.28125 220.964844 97.023438 224.730469 96.546875 C 226.558594 96.328125 228.609375 96 229.304688 95.855469 C 229.996094 95.671875 231.09375 95.5625 231.679688 95.597656 C 232.742188 95.632812 232.777344 95.707031 233.105469 98.011719 Z M 25.050781 104.046875 L 25.050781 106.238281 L 34.925781 106.972656 L 35.035156 108.179688 C 35.183594 109.75 34.707031 109.898438 31.011719 109.386719 C 29.332031 109.164062 27.246094 108.945312 26.332031 108.910156 L 24.6875 108.800781 L 24.503906 110.8125 C 24.320312 112.675781 24.246094 112.824219 23.332031 112.933594 C 22.675781 113.003906 22.308594 112.859375 22.273438 112.566406 C 22.125 110.300781 22.746094 103.535156 23.222656 102.109375 C 23.332031 101.851562 23.769531 101.667969 24.210938 101.742188 C 24.976562 101.851562 25.050781 102.035156 25.050781 104.046875 Z M 233.179688 107.738281 C 234.277344 108.875 234.421875 109.277344 234.421875 110.957031 C 234.421875 113.445312 233.835938 114.285156 232.484375 113.773438 C 231.496094 113.40625 231.167969 112.53125 231.863281 112.089844 C 232.410156 111.761719 232.300781 109.859375 231.714844 109.386719 C 230.910156 108.691406 230.253906 109.238281 228.972656 111.6875 C 227.035156 115.347656 225.132812 116.042969 222.976562 113.992188 C 221.367188 112.492188 220.929688 110.554688 221.660156 108.433594 C 222.097656 107.191406 222.316406 106.972656 223.085938 107.082031 C 224.4375 107.226562 224.660156 107.703125 224 108.984375 C 223.304688 110.335938 223.378906 111.507812 224.292969 112.054688 C 225.242188 112.640625 226.011719 111.980469 227.292969 109.566406 C 229.082031 106.167969 231.132812 105.546875 233.179688 107.738281 Z M 33.574219 116.113281 C 34.890625 117.210938 35.511719 119.550781 35.109375 121.746094 C 34.632812 124.453125 33.097656 125.441406 29.367188 125.476562 C 28.015625 125.476562 26.113281 125.621094 25.125 125.769531 C 23.1875 126.097656 22.527344 125.695312 22.746094 124.269531 C 22.855469 123.464844 23.113281 123.390625 27.539062 122.878906 C 31.378906 122.441406 32.328125 122.183594 32.769531 121.636719 C 33.5 120.648438 33.425781 119.917969 32.4375 118.785156 L 31.632812 117.796875 L 27.574219 118.199219 C 25.378906 118.417969 23.257812 118.527344 22.929688 118.382812 C 22.199219 118.125 22.089844 116.371094 22.785156 116.113281 C 23.441406 115.859375 28.414062 115.308594 30.609375 115.238281 C 32.144531 115.199219 32.695312 115.382812 33.574219 116.113281 Z M 228.753906 117.246094 C 231.386719 117.359375 233.691406 117.613281 233.910156 117.796875 C 234.167969 118.015625 234.203125 118.710938 234.019531 119.84375 C 233.875 120.832031 233.726562 122.585938 233.726562 123.832031 C 233.691406 125.039062 233.582031 126.136719 233.472656 126.246094 C 233.363281 126.355469 232.851562 126.355469 232.300781 126.207031 C 231.644531 126.023438 231.351562 125.695312 231.386719 125.257812 C 231.425781 124.890625 231.496094 123.574219 231.570312 122.367188 L 231.679688 120.136719 L 229.121094 120.136719 L 228.9375 122.148438 C 228.753906 124.015625 228.679688 124.160156 227.839844 124.160156 C 226.960938 124.160156 226.925781 124.050781 226.925781 121.964844 L 226.925781 119.769531 L 223.632812 119.769531 L 223.453125 122.515625 C 223.304688 124.78125 223.160156 125.257812 222.609375 125.367188 C 221.878906 125.511719 220.78125 124.78125 221.074219 124.34375 C 221.148438 124.195312 221.257812 122.550781 221.292969 120.648438 C 221.332031 118.746094 221.402344 117.066406 221.511719 116.917969 C 221.621094 116.734375 222.207031 116.699219 222.867188 116.808594 C 223.488281 116.882812 226.15625 117.101562 228.753906 117.246094 Z M 227.070312 129.609375 C 231.570312 132.535156 232.59375 133.375 232.519531 133.996094 C 232.410156 134.621094 231.972656 134.800781 229.667969 135.203125 C 228.167969 135.460938 226.195312 135.828125 225.28125 136.046875 C 224.367188 136.265625 222.976562 136.519531 222.171875 136.667969 C 221.367188 136.777344 220.488281 137.03125 220.234375 137.253906 C 219.5 137.835938 219.097656 137.105469 219.390625 135.679688 C 219.613281 134.582031 219.792969 134.363281 220.890625 134.21875 C 222.097656 134.035156 222.171875 133.960938 222.464844 132.058594 C 222.792969 130.15625 222.757812 130.046875 221.695312 129.242188 C 220.816406 128.546875 220.636719 128.144531 220.707031 127.195312 C 220.816406 125.695312 220.816406 125.734375 221.183594 125.878906 C 221.367188 125.914062 224 127.632812 227.070312 129.609375 Z M 25.890625 129.9375 C 26.039062 132.058594 26.441406 132.277344 29 131.730469 C 34.816406 130.449219 36.023438 130.265625 36.242188 130.488281 C 36.644531 130.960938 36.9375 132.71875 36.644531 132.902344 C 36.460938 133.011719 35.328125 133.265625 34.085938 133.449219 C 32.839844 133.667969 30.792969 134.035156 29.550781 134.253906 C 28.269531 134.4375 27.136719 134.730469 26.988281 134.875 C 26.878906 135.023438 26.878906 135.863281 27.0625 136.777344 C 27.390625 138.605469 27.28125 138.898438 26.003906 139.042969 C 25.125 139.152344 25.089844 139.007812 24.246094 134.035156 C 23.769531 131.21875 23.480469 128.695312 23.589844 128.4375 C 23.699219 128.144531 24.171875 128 24.757812 128.074219 C 25.710938 128.183594 25.78125 128.328125 25.890625 129.9375 Z M 38.398438 138.570312 C 38.949219 139.628906 38.839844 140.433594 38.144531 140.652344 C 37.777344 140.761719 37.15625 140.984375 36.753906 141.164062 C 36.351562 141.3125 35.363281 141.640625 34.558594 141.859375 C 33.753906 142.117188 32.769531 142.445312 32.367188 142.628906 C 31.964844 142.773438 30.902344 143.140625 29.988281 143.398438 C 29.074219 143.652344 28.125 144.019531 27.902344 144.199219 C 27.210938 144.714844 26.257812 143.761719 26.40625 142.664062 C 26.515625 141.789062 26.878906 141.605469 30.902344 140.324219 C 33.316406 139.554688 35.804688 138.714844 36.386719 138.421875 C 37.851562 137.765625 37.960938 137.765625 38.398438 138.570312 Z M 224 140.25 C 226.414062 141.203125 228.753906 142.078125 229.230469 142.152344 C 229.667969 142.261719 230.109375 142.480469 230.21875 142.628906 C 230.4375 142.957031 228.828125 147.417969 228.058594 148.554688 C 227.21875 149.871094 225.863281 150.382812 224.660156 149.90625 C 223.453125 149.46875 221.988281 148.152344 221.988281 147.527344 C 221.988281 146.761719 221 146.210938 220.269531 146.613281 C 219.648438 146.945312 216.941406 147.710938 215.808594 147.859375 C 215.003906 147.96875 214.96875 147.308594 215.734375 146.066406 C 216.320312 145.117188 216.796875 144.859375 218.734375 144.457031 C 223.050781 143.578125 223.339844 142.921875 219.941406 141.714844 C 218.039062 141.019531 217.78125 140.835938 217.890625 140.03125 C 218.113281 137.800781 217.710938 137.800781 224 140.25 Z M 40.960938 146.25 C 41.398438 147.125 41.433594 148.480469 40.996094 148.480469 C 40.8125 148.480469 39.09375 149.210938 37.191406 150.125 C 35.253906 151.039062 33.535156 151.769531 33.351562 151.769531 C 33.171875 151.769531 32.804688 151.992188 32.585938 152.285156 C 32.257812 152.648438 32.367188 153.160156 32.914062 154.367188 L 33.609375 155.976562 L 32.804688 156.597656 C 31.78125 157.402344 31.488281 157.402344 31.230469 156.597656 C 31.085938 156.269531 30.28125 154.039062 29.367188 151.699219 C 28.453125 149.320312 27.792969 147.125 27.941406 146.835938 C 28.050781 146.542969 28.527344 146.285156 29 146.285156 C 29.734375 146.285156 29.988281 146.578125 30.355469 147.929688 C 30.609375 148.847656 30.9375 149.6875 31.121094 149.761719 C 31.269531 149.871094 33.351562 148.992188 35.730469 147.820312 C 38.109375 146.652344 40.15625 145.664062 40.300781 145.628906 C 40.449219 145.589844 40.742188 145.882812 40.960938 146.25 Z M 220.125 150.601562 C 221.21875 151.148438 222.609375 152.210938 223.230469 152.976562 C 224.21875 154.222656 224.367188 154.660156 224.367188 156.636719 C 224.328125 158.464844 224.144531 159.195312 223.339844 160.4375 C 222.316406 162.046875 221.734375 162.339844 220.964844 161.574219 C 220.304688 160.914062 220.414062 160 221.257812 159.269531 C 222.0625 158.539062 222.246094 156.234375 221.621094 155.027344 C 221 153.929688 218.476562 152.503906 217.089844 152.503906 C 215.40625 152.503906 213.832031 154.40625 214.015625 156.234375 C 214.125 157.367188 214.050781 157.441406 212.957031 157.550781 C 211.75 157.660156 211.75 157.660156 211.75 156.050781 C 211.75 153.820312 213.066406 151.441406 214.894531 150.417969 C 216.796875 149.394531 217.746094 149.394531 220.125 150.601562 Z M 44.652344 154.988281 C 45.3125 155.757812 46.042969 157.109375 46.300781 157.953125 C 46.738281 159.414062 46.703125 159.523438 45.898438 159.890625 C 44.582031 160.476562 43.886719 160.035156 43.886719 158.609375 C 43.886719 157.476562 42.824219 155.792969 42.09375 155.792969 C 41.253906 155.792969 40.59375 157.695312 40.59375 160.109375 C 40.59375 162.378906 40.484375 162.707031 39.570312 163.585938 C 38.109375 165.011719 36.460938 164.902344 34.925781 163.363281 C 33.390625 161.828125 32.839844 159.5625 33.828125 158.828125 C 34.925781 158.0625 35.328125 158.28125 35.695312 159.890625 C 36.097656 161.644531 36.9375 162.378906 37.816406 161.683594 C 38.253906 161.316406 38.398438 160.546875 38.398438 158.828125 C 38.398438 155.28125 39.605469 153.636719 42.128906 153.601562 C 43.265625 153.601562 43.667969 153.820312 44.652344 154.988281 Z M 211.75 159.378906 C 212.445312 159.964844 214.636719 161.535156 216.574219 162.890625 C 218.550781 164.242188 220.234375 165.484375 220.34375 165.667969 C 220.453125 165.851562 220.160156 166.4375 219.683594 166.949219 L 218.84375 167.9375 L 217.269531 166.621094 C 216.394531 165.886719 215.480469 165.339844 215.257812 165.414062 C 215.039062 165.484375 214.34375 166.289062 213.6875 167.242188 L 212.480469 168.921875 L 213.6875 169.800781 C 214.308594 170.3125 215.222656 170.898438 215.699219 171.117188 C 216.6875 171.628906 216.722656 172.289062 215.882812 173.3125 C 215.222656 174.078125 215.222656 174.078125 210.285156 170.605469 C 207.578125 168.667969 205.3125 166.800781 205.238281 166.472656 C 205.164062 166.109375 205.457031 165.523438 205.859375 165.15625 C 206.59375 164.5 206.628906 164.535156 208.421875 165.996094 C 209.40625 166.800781 210.359375 167.496094 210.578125 167.496094 C 210.90625 167.496094 213.210938 164.242188 213.210938 163.765625 C 213.210938 163.65625 212.40625 163.035156 211.417969 162.378906 C 208.859375 160.769531 208.601562 160.402344 209.335938 159.269531 C 210.101562 158.136719 210.210938 158.136719 211.75 159.378906 Z M 48.128906 164.097656 C 47.6875 165.558594 47.175781 166.875 47.066406 167.023438 C 46.921875 167.132812 46.8125 167.605469 46.8125 168.046875 C 46.8125 168.449219 46.628906 168.996094 46.410156 169.214844 C 46.152344 169.472656 46.078125 169.910156 46.191406 170.238281 C 46.371094 170.679688 46.957031 170.421875 49.042969 168.777344 C 51.527344 166.875 51.710938 166.800781 52.371094 167.386719 C 53.394531 168.300781 53.175781 168.851562 51.125 170.3125 C 50.066406 171.082031 47.800781 172.726562 46.117188 174.007812 C 43.484375 175.980469 42.972656 176.238281 42.53125 175.800781 C 42.09375 175.359375 42.128906 174.847656 42.972656 172.214844 C 43.519531 170.53125 44.179688 168.519531 44.472656 167.789062 C 44.726562 167.023438 44.835938 166.328125 44.617188 166.21875 C 44.433594 166.109375 44.214844 166.179688 44.070312 166.363281 C 43.554688 167.203125 39.386719 170.09375 38.949219 169.910156 C 38.65625 169.800781 38.253906 169.398438 38.035156 168.996094 C 37.707031 168.300781 37.886719 168.046875 40.082031 166.507812 C 41.433594 165.523438 43.777344 163.839844 45.3125 162.667969 C 48.859375 160.035156 49.371094 160.292969 48.128906 164.097656 Z M 55.953125 171.667969 C 56.464844 172.652344 56.394531 172.761719 49.699219 178.578125 L 46.921875 180.992188 L 46.042969 180.078125 L 45.203125 179.164062 L 47.542969 177.078125 C 48.859375 175.945312 50.90625 174.078125 52.113281 172.910156 C 53.320312 171.738281 54.566406 170.789062 54.894531 170.789062 C 55.222656 170.789062 55.699219 171.191406 55.953125 171.667969 Z M 201.65625 172.800781 C 201.875 173.203125 203.410156 175.617188 205.09375 178.210938 C 206.738281 180.773438 208.089844 182.96875 208.089844 183.039062 C 208.089844 183.113281 207.835938 183.441406 207.507812 183.734375 C 206.996094 184.285156 206.847656 184.285156 205.96875 183.625 C 205.421875 183.257812 204.179688 182.492188 203.152344 181.941406 C 202.167969 181.359375 201.03125 180.734375 200.703125 180.515625 C 199.9375 180.042969 199.425781 180.480469 199.972656 181.101562 C 200.191406 181.359375 201.03125 182.855469 201.835938 184.394531 C 204.582031 189.585938 203.8125 189.734375 197.265625 185.234375 C 194.488281 183.296875 192.109375 181.539062 192.074219 181.359375 C 191.925781 181.027344 193.390625 179.601562 193.863281 179.566406 C 193.976562 179.566406 194.960938 180.40625 196.097656 181.394531 C 197.339844 182.527344 198.253906 183.078125 198.398438 182.855469 C 198.546875 182.636719 198.070312 181.285156 197.339844 179.894531 C 195.328125 176.019531 195.695312 175.285156 198.691406 177.078125 C 199.644531 177.628906 200.59375 178.101562 200.742188 178.101562 C 200.921875 178.101562 201.253906 178.359375 201.507812 178.652344 C 201.835938 179.054688 202.09375 179.125 202.351562 178.871094 C 202.605469 178.613281 202.496094 178.210938 201.984375 177.664062 C 201.582031 177.1875 200.777344 176.128906 200.230469 175.285156 C 199.242188 173.789062 199.242188 173.675781 199.828125 172.800781 C 200.519531 171.738281 201.070312 171.738281 201.65625 172.800781 Z M 62.425781 178.6875 C 62.539062 179.015625 62.464844 181.210938 62.28125 183.550781 C 62.0625 185.890625 61.988281 187.902344 62.136719 188.050781 C 62.246094 188.195312 63.304688 187.097656 64.511719 185.601562 C 65.683594 184.101562 66.78125 182.855469 66.960938 182.855469 C 67.144531 182.855469 67.546875 183.257812 67.875 183.769531 C 68.460938 184.648438 68.425781 184.722656 64.328125 189.585938 C 59.390625 195.472656 59.097656 195.511719 59.429688 190.390625 C 59.539062 188.5625 59.722656 186.441406 59.832031 185.671875 C 59.902344 184.941406 59.867188 184.320312 59.722656 184.320312 C 59.539062 184.320312 58.515625 185.492188 57.417969 186.878906 C 56.355469 188.304688 55.296875 189.441406 55.078125 189.441406 C 54.601562 189.441406 53.394531 188.304688 53.394531 187.902344 C 53.394531 187.722656 53.832031 187.097656 54.417969 186.550781 C 54.96875 185.964844 56.796875 183.84375 58.515625 181.832031 C 60.234375 179.785156 61.769531 178.101562 61.914062 178.101562 C 62.0625 178.101562 62.28125 178.359375 62.425781 178.6875 Z M 191.925781 184.101562 C 194.085938 185.234375 196.132812 188.085938 196.535156 190.464844 C 196.9375 192.988281 196.242188 194.742188 194.378906 196.023438 C 192.035156 197.632812 190.097656 197.558594 187.976562 195.765625 C 184.976562 193.171875 183.84375 188.964844 185.527344 186.476562 C 187.246094 183.917969 189.804688 183.003906 191.925781 184.101562 Z M 71.3125 186.332031 C 71.679688 186.769531 71.679688 187.097656 71.351562 187.832031 C 70.765625 189.148438 70.800781 189.183594 72.628906 190.5 L 74.277344 191.707031 L 75.117188 190.9375 C 76.105469 189.988281 76.726562 189.988281 77.859375 190.867188 L 78.738281 191.523438 L 76.761719 192.988281 C 66.378906 200.667969 66.265625 200.703125 66.707031 197.558594 C 66.851562 196.609375 67.109375 195.328125 67.253906 194.742188 C 67.4375 194.121094 67.765625 192.660156 68.023438 191.453125 C 68.5 189 69.121094 186.222656 69.339844 185.492188 C 69.484375 184.941406 70.507812 185.378906 71.3125 186.332031 Z M 184.503906 195 C 187.613281 200.484375 187.648438 200.558594 186.917969 201.253906 C 185.964844 202.238281 185.269531 201.875 184.285156 199.863281 C 183.808594 198.910156 183.332031 198.109375 183.1875 197.996094 C 182.785156 197.742188 179.601562 199.789062 179.566406 200.300781 C 179.566406 200.777344 180.808594 203.152344 181.503906 203.996094 C 181.796875 204.398438 181.6875 204.652344 181.027344 205.203125 C 179.894531 206.042969 179.566406 205.96875 178.796875 204.582031 C 178.46875 203.996094 177.847656 202.863281 177.371094 202.058594 C 176.933594 201.253906 175.945312 199.535156 175.25 198.21875 C 174.554688 196.902344 173.789062 195.546875 173.566406 195.183594 C 173.238281 194.632812 173.347656 194.414062 174.078125 193.828125 C 175.175781 192.988281 175.398438 193.171875 176.824219 195.914062 C 177.371094 196.972656 178.03125 197.851562 178.324219 197.851562 C 179.054688 197.851562 181.761719 196.023438 181.761719 195.511719 C 181.761719 195.292969 181.175781 194.230469 180.480469 193.132812 C 179.785156 192.074219 179.199219 191.085938 179.199219 190.902344 C 179.199219 190.609375 180.664062 189.476562 181.101562 189.476562 C 181.246094 189.441406 182.785156 191.925781 184.503906 195 Z M 80.75 192.660156 L 81.589844 193.316406 L 78.738281 199.058594 C 77.164062 202.203125 75.703125 204.800781 75.484375 204.800781 C 75.226562 204.800781 74.679688 204.507812 74.203125 204.105469 C 73.546875 203.59375 73.433594 203.300781 73.765625 202.933594 C 73.984375 202.640625 75.335938 200.082031 76.800781 197.191406 C 78.226562 194.339844 79.507812 192 79.652344 192 C 79.800781 192 80.273438 192.292969 80.75 192.660156 Z M 172.398438 197.742188 C 172.761719 202.421875 172.652344 209.480469 172.179688 209.773438 C 171.957031 209.921875 171.082031 209.296875 170.09375 208.238281 C 169.179688 207.25 167.058594 204.984375 165.414062 203.226562 C 163.730469 201.472656 162.378906 199.828125 162.378906 199.570312 C 162.378906 199.3125 162.816406 198.910156 163.402344 198.65625 C 164.316406 198.21875 164.460938 198.289062 165.304688 199.351562 L 166.253906 200.484375 L 168.046875 199.605469 C 169.765625 198.800781 169.875 198.65625 169.875 197.414062 C 169.875 196.5 170.09375 195.875 170.605469 195.511719 C 171.886719 194.523438 172.140625 194.816406 172.398438 197.742188 Z M 89.636719 197.304688 C 90.625 197.816406 91.429688 198.363281 91.429688 198.546875 C 91.429688 198.875 88.648438 205.019531 87.40625 207.46875 C 87.003906 208.273438 86.675781 209.117188 86.675781 209.40625 C 86.675781 210.394531 85.761719 210.324219 83.640625 209.152344 C 79.507812 206.921875 78.519531 203.886719 80.566406 199.789062 C 82.503906 196.023438 85.429688 195.183594 89.636719 197.304688 Z M 94.867188 199.386719 C 94.9375 199.644531 95.269531 200.777344 95.632812 201.875 C 95.964844 202.972656 96.328125 204.140625 96.4375 204.433594 C 96.585938 204.726562 96.839844 205.640625 97.0625 206.410156 C 97.644531 208.457031 98.15625 208.382812 98.632812 206.191406 C 99.402344 202.496094 99.695312 201.765625 100.316406 201.363281 C 101.121094 200.851562 102.730469 202.277344 102.144531 203.042969 C 101.960938 203.300781 101.59375 204.25 101.304688 205.164062 C 101.046875 206.078125 100.535156 207.726562 100.207031 208.824219 C 99.839844 209.921875 99.363281 211.601562 99.109375 212.589844 C 98.851562 213.539062 98.488281 214.417969 98.304688 214.527344 C 97.792969 214.855469 97.132812 213.980469 96.585938 212.296875 C 96.328125 211.492188 96 210.503906 95.816406 210.101562 C 95.632812 209.699219 95.269531 208.53125 94.976562 207.542969 C 94.683594 206.519531 94.316406 205.714844 94.171875 205.714844 C 94.023438 205.714844 93.585938 206.921875 93.183594 208.421875 C 92.269531 212.003906 92.015625 212.480469 90.988281 212.1875 C 89.78125 211.894531 89.601562 211.417969 90.148438 209.957031 C 90.953125 207.761719 92.855469 201.398438 93.109375 200.117188 C 93.292969 199.277344 93.550781 198.949219 94.0625 198.949219 C 94.425781 198.949219 94.792969 199.167969 94.867188 199.386719 Z M 162.121094 203.152344 C 162.707031 204.984375 163.585938 207.726562 164.058594 209.296875 C 164.570312 210.835938 164.902344 212.261719 164.789062 212.445312 C 164.679688 212.625 164.167969 212.847656 163.621094 212.957031 C 162.558594 213.136719 162.449219 213.027344 161.28125 208.824219 C 160.839844 207.324219 160.328125 205.714844 160.144531 205.238281 C 159.964844 204.761719 159.816406 204.105469 159.816406 203.703125 C 159.816406 202.863281 159.269531 202.460938 158.648438 202.863281 C 158.390625 203.007812 157.367188 203.410156 156.34375 203.777344 C 154.332031 204.433594 153.492188 204.140625 153.671875 202.824219 C 153.746094 202.277344 154.441406 201.875 156.597656 201.144531 C 158.171875 200.59375 159.5625 200.046875 159.707031 199.898438 C 160.476562 199.167969 161.132812 200.082031 162.121094 203.152344 Z M 106.863281 203.265625 C 107.007812 203.410156 106.972656 204.179688 106.753906 204.984375 C 105.910156 208.089844 105.144531 211.75 104.777344 214.234375 C 104.484375 216.027344 103.898438 216.429688 102.507812 215.808594 C 101.886719 215.515625 101.667969 215.1875 101.816406 214.785156 C 101.960938 214.453125 102.546875 211.785156 103.167969 208.859375 C 104.628906 201.949219 104.410156 202.496094 105.617188 202.789062 C 106.167969 202.898438 106.714844 203.152344 106.863281 203.265625 Z M 152.429688 203.703125 C 152.613281 205.3125 154.367188 213.359375 154.695312 214.199219 C 154.988281 214.894531 154.878906 215.113281 153.929688 215.625 C 153.308594 215.953125 152.648438 216.0625 152.503906 215.882812 C 152.355469 215.734375 151.953125 214.089844 151.589844 212.296875 C 150.929688 208.75 150.492188 206.847656 149.871094 204.761719 C 149.394531 203.042969 149.722656 202.53125 151.148438 202.679688 C 152.101562 202.753906 152.355469 202.972656 152.429688 203.703125 Z M 19.675781 242.980469 L 19.566406 250.332031 L 17.371094 250.332031 L 17.261719 243.382812 C 17.226562 239.578125 17.226562 236.289062 17.335938 236.03125 C 17.40625 235.8125 17.992188 235.628906 18.613281 235.628906 L 19.75 235.628906 Z M 24.464844 236.324219 C 24.648438 236.800781 25.453125 238.554688 26.222656 240.273438 C 27.027344 241.992188 27.792969 243.710938 27.941406 244.078125 C 28.414062 245.394531 28.597656 244.332031 28.636719 240.019531 L 28.707031 235.703125 L 30.902344 235.703125 L 30.902344 250.332031 L 29.621094 250.332031 C 28.453125 250.332031 28.269531 250.183594 27.464844 248.503906 C 26.988281 247.480469 26.148438 245.613281 25.601562 244.332031 C 25.050781 243.015625 24.464844 241.921875 24.246094 241.847656 C 24.027344 241.773438 23.917969 243.273438 23.917969 246.015625 L 23.953125 250.332031 L 21.761719 250.332031 L 21.648438 243.382812 C 21.613281 239.578125 21.648438 236.25 21.722656 235.996094 C 21.832031 235.738281 22.417969 235.519531 23.039062 235.519531 C 23.84375 235.519531 24.246094 235.738281 24.464844 236.324219 Z M 43.8125 236.105469 C 45.054688 236.359375 46.078125 238.300781 46.078125 240.457031 C 46.078125 241.957031 45.898438 242.542969 45.054688 243.527344 C 44.140625 244.625 43.738281 244.808594 41.949219 244.957031 L 39.898438 245.101562 L 39.789062 247.734375 L 39.679688 250.332031 L 37.484375 250.332031 L 37.375 243.382812 C 37.339844 239.578125 37.339844 236.289062 37.414062 236.070312 C 37.558594 235.703125 42.09375 235.703125 43.8125 236.105469 Z M 50.03125 240.96875 C 50.140625 246.636719 50.542969 247.953125 52.113281 247.953125 C 53.832031 247.953125 54.089844 247.078125 54.199219 241.1875 L 54.308594 235.703125 L 56.867188 235.703125 L 56.976562 240.019531 C 57.160156 248.101562 56.0625 250.515625 52.296875 250.515625 C 49.921875 250.515625 48.347656 249.234375 47.871094 246.855469 C 47.542969 244.992188 47.433594 236.105469 47.761719 235.777344 C 47.871094 235.667969 48.421875 235.628906 48.933594 235.667969 L 49.921875 235.777344 Z M 65.753906 236.105469 C 67.292969 236.359375 68.386719 238.042969 68.386719 240.164062 C 68.386719 241.445312 68.167969 241.921875 67.070312 242.980469 L 65.753906 244.261719 L 66.707031 245.394531 C 67.21875 246.050781 67.65625 246.710938 67.65625 246.929688 C 67.65625 247.113281 67.984375 247.769531 68.425781 248.355469 C 69.449219 249.78125 69.121094 250.585938 67.585938 250.441406 C 66.523438 250.332031 66.265625 250.039062 65.097656 247.84375 C 63.523438 244.882812 62.792969 244.113281 61.988281 244.445312 C 61.476562 244.625 61.402344 245.136719 61.476562 247.515625 L 61.621094 250.332031 L 59.0625 250.332031 L 58.953125 243.382812 C 58.917969 239.578125 58.917969 236.289062 59.027344 236.070312 C 59.171875 235.667969 63.195312 235.703125 65.753906 236.105469 Z M 76.398438 236.03125 C 78.554688 237.164062 79.359375 239.945312 77.566406 240.199219 C 76.984375 240.3125 76.398438 239.980469 75.667969 239.214844 C 74.53125 237.96875 73.984375 237.824219 72.996094 238.554688 C 71.828125 239.433594 72.449219 240.382812 74.679688 241.1875 C 78.300781 242.46875 79.578125 244.554688 78.664062 247.550781 C 78.117188 249.453125 77.128906 250.222656 75.042969 250.441406 C 72.59375 250.660156 71.09375 249.820312 70.144531 247.734375 C 69.230469 245.648438 69.449219 244.957031 71.023438 245.101562 C 71.898438 245.175781 72.265625 245.429688 72.339844 245.941406 C 72.667969 247.769531 74.496094 248.503906 75.777344 247.332031 C 77.128906 246.089844 76.542969 245.066406 73.875 244.113281 C 70.875 243.054688 69.523438 240.96875 70.21875 238.445312 C 70.910156 235.886719 73.875 234.753906 76.398438 236.03125 Z M 83.089844 240.824219 C 82.980469 246.527344 83.273438 247.699219 84.917969 247.882812 C 85.578125 247.953125 86.089844 247.699219 86.675781 246.96875 C 87.40625 246.015625 87.441406 245.648438 87.371094 240.824219 L 87.257812 235.703125 L 89.746094 235.703125 L 89.636719 241.519531 C 89.601562 244.699219 89.417969 247.699219 89.234375 248.136719 C 88.355469 250.441406 84.554688 251.355469 82.46875 249.710938 C 80.785156 248.394531 80.457031 247.039062 80.457031 241.261719 C 80.457031 238.371094 80.566406 235.886719 80.714844 235.738281 C 80.859375 235.59375 81.480469 235.519531 82.066406 235.59375 L 83.164062 235.703125 Z M 94.171875 243.015625 L 94.171875 250.332031 L 91.722656 250.332031 L 91.722656 243.273438 C 91.757812 239.433594 91.867188 236.070312 91.976562 235.847656 C 92.125 235.667969 92.671875 235.519531 93.183594 235.59375 L 94.171875 235.703125 Z M 104.410156 237.019531 C 104.410156 238.226562 104.339844 238.261719 102.765625 238.445312 L 101.121094 238.628906 L 101.121094 250.332031 L 98.925781 250.332031 L 98.558594 238.628906 L 97.097656 238.445312 C 95.925781 238.300781 95.597656 238.117188 95.523438 237.421875 C 95.269531 235.777344 95.488281 235.703125 100.058594 235.738281 L 104.410156 235.8125 Z M 117.761719 236.324219 C 119.699219 237.675781 120.503906 239.617188 120.503906 243.015625 C 120.503906 245.285156 120.320312 246.273438 119.734375 247.40625 C 117.613281 251.464844 112.640625 251.574219 110.554688 247.625 C 109.09375 244.917969 109.496094 239.542969 111.25 237.3125 C 112.714844 235.484375 115.820312 235.007812 117.761719 236.324219 Z M 130.011719 237.019531 L 130.011719 238.261719 L 127.453125 238.445312 L 124.890625 238.628906 L 124.890625 241.554688 L 129.28125 241.554688 L 129.28125 244.113281 L 127.011719 244.222656 L 124.746094 244.332031 L 124.527344 250.332031 L 122.074219 250.332031 L 122.113281 243.273438 C 122.113281 239.398438 122.183594 236.105469 122.292969 235.957031 C 122.367188 235.8125 124.160156 235.738281 126.246094 235.738281 L 130.011719 235.8125 Z M 138.421875 238.519531 C 138.421875 240.054688 138.53125 241.40625 138.640625 241.554688 C 138.789062 241.664062 139.777344 240.421875 140.875 238.738281 C 142.8125 235.738281 142.882812 235.703125 144.382812 235.667969 C 145.226562 235.628906 145.921875 235.777344 145.921875 235.921875 C 145.921875 236.105469 145.117188 237.3125 144.089844 238.59375 C 143.105469 239.871094 142.261719 241.226562 142.261719 241.589844 C 142.300781 241.992188 143.175781 244.003906 144.273438 246.089844 C 145.335938 248.210938 146.175781 250.039062 146.066406 250.222656 C 145.957031 250.367188 145.296875 250.515625 144.601562 250.515625 C 143.398438 250.515625 143.285156 250.40625 142.261719 248.210938 C 141.675781 246.929688 141.019531 245.46875 140.835938 244.917969 C 140.03125 242.835938 138.898438 244.371094 138.605469 247.953125 C 138.421875 250.292969 138.421875 250.332031 137.324219 250.332031 L 136.230469 250.332031 L 136.117188 243.382812 C 136.082031 239.578125 136.117188 236.25 136.230469 235.957031 C 136.339844 235.667969 136.8125 235.519531 137.398438 235.59375 C 138.421875 235.703125 138.421875 235.703125 138.421875 238.519531 Z M 151.078125 238.664062 C 151.882812 240.382812 152.757812 242.394531 152.976562 243.089844 C 153.746094 245.359375 154.148438 244.296875 154.148438 239.910156 L 154.148438 235.703125 L 156.34375 235.703125 L 156.34375 250.332031 L 155.097656 250.332031 C 153.855469 250.332031 153.820312 250.292969 151.953125 246.125 C 150.894531 243.820312 149.941406 241.921875 149.761719 241.921875 C 149.503906 241.921875 149.46875 247.257812 149.6875 249.601562 C 149.761719 250.183594 149.539062 250.332031 148.515625 250.332031 L 147.308594 250.332031 L 147.347656 243.015625 C 147.347656 238.996094 147.382812 235.667969 147.382812 235.59375 C 147.382812 235.554688 147.859375 235.519531 148.480469 235.519531 C 149.503906 235.519531 149.6875 235.738281 151.078125 238.664062 Z M 166.875 237.09375 C 169.433594 239.652344 169.949219 243.566406 168.230469 247.480469 C 166.398438 251.613281 160.839844 251.5 158.828125 247.296875 C 157.878906 245.320312 157.953125 240.199219 158.9375 238.445312 C 160 236.617188 161.792969 235.519531 163.730469 235.519531 C 165.121094 235.519531 165.523438 235.703125 166.875 237.09375 Z M 172.289062 236.984375 C 172.398438 237.675781 172.726562 239.6875 172.984375 241.445312 C 173.238281 243.238281 173.566406 244.664062 173.714844 244.664062 C 173.824219 244.664062 174.226562 243.015625 174.554688 241.003906 C 175.433594 235.957031 175.578125 235.59375 177.042969 235.667969 C 177.699219 235.703125 178.359375 235.957031 178.503906 236.25 C 178.722656 236.761719 179.164062 239.105469 179.785156 243.125 C 180.152344 245.722656 180.808594 244.734375 181.136719 241.152344 C 181.578125 236.289062 181.761719 235.703125 183.078125 235.738281 C 184.503906 235.738281 184.464844 235.996094 182.820312 244.296875 C 182.636719 245.210938 182.382812 246.820312 182.273438 247.84375 C 181.980469 250.039062 181.503906 250.625 180.042969 250.441406 C 179.164062 250.332031 178.980469 250.113281 178.761719 248.867188 C 178.652344 248.0625 178.25 246.089844 177.957031 244.480469 C 177.628906 242.871094 177.371094 241.335938 177.371094 241.078125 C 177.371094 240.859375 177.226562 240.640625 177.042969 240.640625 C 176.824219 240.640625 176.566406 241.40625 176.421875 242.359375 C 176.273438 243.347656 175.910156 245.503906 175.578125 247.222656 L 174.957031 250.332031 L 173.496094 250.332031 C 172.25 250.332031 172.070312 250.222656 171.957031 249.417969 C 171.921875 248.90625 171.628906 247.257812 171.375 245.761719 C 171.082031 244.261719 170.640625 241.847656 170.421875 240.457031 C 170.167969 239.03125 169.800781 237.53125 169.617188 237.09375 C 169.105469 235.996094 169.546875 235.445312 170.898438 235.59375 C 171.886719 235.703125 172.070312 235.886719 172.289062 236.984375 Z M 203.152344 237.054688 L 203.152344 238.261719 L 200.230469 238.445312 L 197.304688 238.628906 L 197.304688 241.1875 L 200.15625 241.296875 C 202.863281 241.40625 202.972656 241.445312 202.972656 242.285156 C 202.972656 242.796875 202.972656 243.308594 202.972656 243.457031 C 202.972656 243.640625 201.691406 243.820312 200.15625 243.929688 L 197.304688 244.113281 L 197.304688 247.769531 L 203.519531 247.769531 L 203.519531 250.332031 L 195.109375 250.332031 L 195 243.382812 C 194.960938 239.578125 194.960938 236.289062 195.035156 236.070312 C 195.144531 235.847656 196.71875 235.738281 199.167969 235.777344 L 203.152344 235.847656 Z M 212.078125 236.359375 C 212.589844 236.617188 213.359375 237.53125 213.832031 238.410156 C 214.527344 239.761719 214.675781 240.566406 214.675781 243.164062 C 214.636719 248.648438 213.320312 250.148438 208.421875 250.257812 L 205.347656 250.332031 L 205.238281 243.382812 C 205.203125 239.578125 205.203125 236.289062 205.3125 236.070312 C 205.496094 235.554688 210.90625 235.8125 212.078125 236.359375 Z M 224.402344 236.214844 C 225.535156 236.910156 226.960938 239.285156 226.597656 239.871094 C 226.488281 240.054688 225.976562 240.273438 225.460938 240.347656 C 224.730469 240.492188 224.367188 240.3125 223.78125 239.507812 C 223.230469 238.703125 222.757812 238.445312 221.878906 238.445312 C 219.722656 238.445312 218.695312 239.910156 218.695312 243.015625 C 218.695312 245.613281 219.613281 247.441406 221.109375 247.808594 C 222.5 248.171875 224 247.257812 224 246.125 C 224 245.359375 223.816406 245.175781 222.828125 245.101562 C 221.734375 244.992188 221.621094 244.882812 221.621094 243.710938 L 221.621094 242.46875 L 226.742188 242.46875 L 226.742188 248.648438 L 225.171875 249.601562 C 222.023438 251.429688 218.585938 250.476562 217.050781 247.40625 C 215.992188 245.320312 216.027344 240.238281 217.089844 238.445312 C 218.660156 235.738281 221.953125 234.714844 224.402344 236.214844 Z M 237.164062 237.019531 L 237.164062 238.261719 L 234.167969 238.371094 L 231.132812 238.480469 L 231.132812 241.445312 L 233.984375 241.335938 L 236.800781 241.1875 L 236.800781 244.113281 L 234.203125 244.003906 C 232.742188 243.929688 231.496094 244.003906 231.386719 244.1875 C 231.277344 244.332031 231.132812 245.210938 231.09375 246.125 L 230.949219 247.769531 L 234.167969 247.625 L 237.386719 247.515625 L 237.277344 248.90625 L 237.164062 250.332031 L 228.753906 250.332031 L 228.644531 243.382812 C 228.609375 239.578125 228.609375 236.289062 228.679688 236.070312 C 228.789062 235.847656 230.4375 235.738281 232.996094 235.738281 L 237.164062 235.8125 Z M 187.832031 241.921875 L 187.867188 247.769531 L 193.28125 247.769531 L 193.28125 250.332031 L 185.601562 250.332031 L 185.492188 243.566406 C 185.453125 239.871094 185.492188 236.617188 185.601562 236.324219 C 185.710938 236.03125 186.183594 235.886719 186.769531 235.957031 L 187.792969 236.070312 Z M 187.832031 241.921875 "/>
<path style=" stroke:none;fill-rule:nonzero;fill:rgb(17.647059%,20%,48.627451%);fill-opacity:1;" d="M 122.695312 11.777344 C 122.585938 12.070312 122.550781 14.007812 122.585938 16.128906 L 122.695312 19.929688 L 123.648438 20.042969 C 124.269531 20.113281 125 19.820312 125.660156 19.238281 C 126.648438 18.433594 126.71875 18.140625 126.71875 15.761719 C 126.71875 13.675781 126.574219 13.054688 125.988281 12.472656 C 125 11.484375 122.953125 11.042969 122.695312 11.777344 Z M 122.695312 11.777344 "/>
<path style=" stroke:none;fill-rule:nonzero;fill:rgb(17.647059%,20%,48.627451%);fill-opacity:1;" d="M 158.683594 19.457031 C 158.425781 19.929688 158.023438 20.664062 157.734375 21.101562 C 157.257812 21.832031 157.292969 21.941406 158.316406 22.453125 C 159.597656 23.148438 159.707031 23.039062 159.742188 20.773438 C 159.742188 18.761719 159.339844 18.25 158.683594 19.457031 Z M 158.683594 19.457031 "/>
<path style=" stroke:none;fill-rule:nonzero;fill:rgb(17.647059%,20%,48.627451%);fill-opacity:1;" d="M 181.429688 29.074219 C 180.222656 30.464844 179.417969 32.621094 179.640625 33.976562 C 179.675781 34.449219 180.1875 35.183594 180.734375 35.585938 C 182.234375 36.679688 183.84375 36.097656 185.160156 33.976562 C 186.625 31.5625 186.84375 29.84375 185.78125 28.707031 C 184.503906 27.320312 182.855469 27.464844 181.429688 29.074219 Z M 181.429688 29.074219 "/>
<path style=" stroke:none;fill-rule:nonzero;fill:rgb(17.647059%,20%,48.627451%);fill-opacity:1;" d="M 125.074219 49.226562 C 123.320312 52.003906 123.722656 54.234375 126.5 57.160156 C 127.453125 58.183594 127.597656 59.320312 127.195312 62.355469 C 127.121094 62.867188 127.304688 63.085938 127.78125 63.085938 C 128.621094 63.085938 130.15625 60.34375 130.195312 58.84375 C 130.195312 57.78125 129.316406 55.40625 128.769531 55.039062 C 127.890625 54.527344 127.160156 52.332031 127.121094 50.140625 C 127.085938 48.675781 126.867188 47.726562 126.609375 47.617188 C 126.390625 47.542969 125.695312 48.273438 125.074219 49.226562 Z M 125.074219 49.226562 "/>
<path style=" stroke:none;fill-rule:nonzero;fill:rgb(17.647059%,20%,48.627451%);fill-opacity:1;" d="M 135.460938 49.628906 C 134.21875 51.164062 134.035156 51.601562 134.070312 53.210938 C 134.070312 54.417969 134.398438 55.660156 135.058594 56.941406 C 136.230469 59.246094 136.265625 59.574219 135.3125 61.511719 C 134.546875 63.121094 134.621094 63.632812 135.605469 63.632812 C 136.484375 63.632812 138.605469 60.378906 138.605469 59.027344 C 138.605469 58.40625 138.277344 56.832031 137.835938 55.550781 C 137.289062 53.871094 137.144531 52.734375 137.324219 51.566406 C 137.910156 47.433594 137.546875 47.066406 135.460938 49.628906 Z M 135.460938 49.628906 "/>
<path style=" stroke:none;fill-rule:nonzero;fill:rgb(17.647059%,20%,48.627451%);fill-opacity:1;" d="M 114.835938 50.285156 C 113.589844 53.539062 114.210938 55.808594 116.882812 58.039062 C 118.566406 59.464844 119.003906 60.414062 119.039062 62.71875 C 119.039062 63.925781 119.1875 64.183594 119.734375 64.183594 C 120.320312 64.183594 120.574219 63.742188 120.976562 62.171875 C 121.601562 59.683594 121.199219 58.148438 119.480469 56.320312 C 117.6875 54.382812 116.992188 53.101562 116.699219 51.238281 C 116.445312 49.226562 115.417969 48.714844 114.835938 50.285156 Z M 114.835938 50.285156 "/>
<path style=" stroke:none;fill-rule:nonzero;fill:rgb(17.647059%,20%,48.627451%);fill-opacity:1;" d="M 144.019531 53.359375 L 142.191406 55.1875 L 142.371094 57.492188 C 142.480469 58.769531 142.664062 60.234375 142.8125 60.78125 C 143.175781 62.136719 142.8125 63.339844 141.675781 64.695312 C 141.164062 65.316406 140.835938 65.976562 140.984375 66.195312 C 141.457031 66.925781 142.519531 66.523438 144.019531 64.988281 L 145.554688 63.414062 L 145.554688 59.28125 C 145.554688 55.699219 145.664062 54.96875 146.324219 53.871094 C 147.089844 52.625 147.054688 51.566406 146.25 51.566406 C 145.992188 51.566406 145.003906 52.371094 144.019531 53.359375 Z M 144.019531 53.359375 "/>
<path style=" stroke:none;fill-rule:nonzero;fill:rgb(17.647059%,20%,48.627451%);fill-opacity:1;" d="M 106.386719 52.917969 C 105.179688 56.027344 105.691406 57.964844 108.25 59.792969 C 111.652344 62.246094 111.835938 62.464844 112.164062 64.476562 C 112.53125 66.890625 113.335938 67.035156 114.066406 64.769531 C 114.796875 62.390625 114.210938 61.039062 110.996094 57.929688 C 108.800781 55.808594 108.25 55.078125 107.996094 53.761719 C 107.628906 51.859375 106.933594 51.492188 106.386719 52.917969 Z M 106.386719 52.917969 "/>
<path style=" stroke:none;fill-rule:nonzero;fill:rgb(17.647059%,20%,48.627451%);fill-opacity:1;" d="M 153.417969 57.378906 C 150.855469 58.808594 150.308594 59.867188 150.308594 63.414062 L 150.308594 66.304688 L 148.808594 67.730469 C 147.894531 68.609375 147.382812 69.375 147.527344 69.667969 C 147.785156 70.398438 148.40625 70.363281 150.125 69.375 C 152.210938 68.207031 153.125 66.632812 153.417969 63.707031 C 153.746094 60.890625 154.367188 59.390625 155.722656 58.257812 C 156.527344 57.601562 156.597656 57.378906 156.195312 56.90625 C 155.574219 56.171875 155.613281 56.171875 153.417969 57.378906 Z M 153.417969 57.378906 "/>
<path style=" stroke:none;fill-rule:nonzero;fill:rgb(17.647059%,20%,48.627451%);fill-opacity:1;" d="M 97.171875 57.636719 C 96.730469 58.074219 96.878906 60.671875 97.425781 61.953125 C 98.085938 63.523438 99.511719 64.621094 101.925781 65.316406 C 103.898438 65.902344 105.472656 67.363281 105.765625 68.9375 C 105.835938 69.375 106.167969 69.667969 106.605469 69.667969 C 107.265625 69.667969 107.335938 69.449219 107.226562 67.839844 C 107.082031 65.609375 105.765625 63.742188 103.644531 62.792969 C 100.789062 61.511719 100.351562 61.21875 99.183594 59.429688 C 97.902344 57.527344 97.574219 57.234375 97.171875 57.636719 Z M 97.171875 57.636719 "/>
<path style=" stroke:none;fill-rule:nonzero;fill:rgb(17.647059%,20%,48.627451%);fill-opacity:1;" d="M 161.390625 64.074219 C 159.453125 64.695312 158.390625 66.15625 157.804688 68.9375 C 157.257812 71.535156 156.085938 73.253906 154.40625 73.910156 C 153.929688 74.09375 153.601562 74.460938 153.671875 74.714844 C 153.890625 75.375 155.390625 75.445312 157.074219 74.863281 C 158.828125 74.238281 159.925781 72.777344 160.730469 69.925781 C 161.207031 68.316406 161.753906 67.4375 163.144531 66.085938 C 164.132812 65.132812 164.863281 64.183594 164.753906 64 C 164.460938 63.5625 162.925781 63.597656 161.390625 64.074219 Z M 161.390625 64.074219 "/>
<path style=" stroke:none;fill-rule:nonzero;fill:rgb(17.647059%,20%,48.627451%);fill-opacity:1;" d="M 89.417969 64.730469 C 88.941406 65.5 90.292969 69.046875 91.355469 69.777344 C 92.488281 70.621094 94.792969 71.3125 96.328125 71.3125 C 97.351562 71.3125 99.109375 72.777344 100.097656 74.421875 C 100.460938 75.082031 100.570312 75.082031 101.082031 74.605469 C 101.558594 74.128906 101.59375 73.835938 101.230469 72.777344 C 100.207031 69.851562 99.183594 69.011719 95.304688 67.949219 C 94.171875 67.65625 92.855469 66.890625 91.757812 65.902344 C 89.890625 64.257812 89.746094 64.183594 89.417969 64.730469 Z M 89.417969 64.730469 "/>
<path style=" stroke:none;fill-rule:nonzero;fill:rgb(17.647059%,20%,48.627451%);fill-opacity:1;" d="M 167.863281 70.582031 C 165.484375 70.949219 164.207031 72.191406 163.402344 74.863281 C 162.890625 76.691406 161.390625 78.191406 159.742188 78.519531 C 157.148438 79.03125 158.390625 80.492188 161.132812 80.128906 C 163.621094 79.800781 164.753906 78.996094 165.960938 76.726562 C 167.386719 74.09375 168.851562 72.449219 170.203125 72.117188 C 170.972656 71.898438 171.335938 71.605469 171.335938 71.09375 C 171.335938 70.253906 170.679688 70.179688 167.863281 70.582031 Z M 167.863281 70.582031 "/>
<path style=" stroke:none;fill-rule:nonzero;fill:rgb(17.647059%,20%,48.627451%);fill-opacity:1;" d="M 82.835938 71.679688 C 82.433594 72.339844 84.003906 75.226562 85.320312 76.214844 C 86.417969 77.054688 86.894531 77.164062 89.492188 77.164062 C 92.414062 77.164062 92.414062 77.164062 94.136719 78.664062 C 95.453125 79.835938 95.964844 80.089844 96.292969 79.761719 C 96.621094 79.433594 96.511719 78.921875 95.816406 77.640625 C 94.539062 75.226562 93.476562 74.605469 90.113281 74.167969 C 87.078125 73.765625 85.359375 73.105469 84.554688 71.972656 C 84.003906 71.242188 83.199219 71.09375 82.835938 71.679688 Z M 82.835938 71.679688 "/>
<path style=" stroke:none;fill-rule:nonzero;fill:rgb(17.647059%,20%,48.627451%);fill-opacity:1;" d="M 124.636719 74.058594 L 123.28125 74.933594 L 123.867188 76.105469 C 125.804688 79.980469 126.0625 86.855469 124.488281 91.792969 C 123.464844 94.9375 120.6875 100.316406 117.320312 105.691406 C 115.238281 109.019531 114.175781 111.398438 113.519531 114.101562 C 112.96875 116.445312 112.859375 119.734375 113.335938 121.269531 C 113.519531 121.855469 113.882812 123.0625 114.140625 123.976562 C 114.652344 125.695312 115.273438 126.976562 116.773438 129.351562 C 117.796875 130.960938 122.953125 136.046875 123.574219 136.046875 C 123.792969 136.046875 123.976562 136.339844 123.976562 136.742188 C 123.976562 137.289062 123.574219 137.472656 121.890625 137.691406 C 116.445312 138.421875 112.824219 137.726562 108.507812 135.058594 C 107.042969 134.144531 106.460938 134.21875 105.179688 135.644531 C 104.484375 136.410156 104.519531 136.449219 106.421875 140.324219 C 109.714844 146.835938 114.433594 150.96875 120.90625 152.90625 C 124.414062 153.964844 131.621094 154.074219 134.765625 153.089844 C 142.371094 150.746094 147.601562 146.140625 150.929688 138.972656 C 152.285156 135.972656 152.285156 135.828125 150.894531 134.765625 L 149.613281 133.777344 L 148.40625 134.507812 C 145.882812 135.972656 140.761719 137.507812 138.3125 137.507812 C 137.105469 137.507812 134.398438 137.03125 133.230469 136.59375 C 133.011719 136.519531 134.253906 135.023438 136.007812 133.230469 C 139.375 129.792969 140.800781 127.414062 142.335938 122.695312 C 143.03125 120.503906 143.140625 119.332031 143.175781 114.652344 C 143.175781 111.25 142.996094 108.472656 142.703125 107.335938 C 141.75 103.714844 141.421875 102.546875 140.542969 99.839844 C 138.3125 92.929688 134.621094 85.46875 129.9375 78.410156 C 128.769531 76.652344 127.5625 74.789062 127.269531 74.277344 C 126.5 73.070312 126.207031 73.03125 124.636719 74.058594 Z M 129.753906 84.1875 C 130.558594 85.175781 134.621094 93.621094 135.863281 96.914062 C 137.726562 101.742188 138.058594 102.765625 139.152344 107.335938 C 140.03125 110.847656 140.140625 111.835938 139.996094 115.382812 C 139.8125 119.625 138.753906 123.976562 137.433594 125.878906 C 137.070312 126.390625 136.777344 126.976562 136.777344 127.160156 C 136.777344 127.742188 131.472656 133.265625 129.863281 134.363281 L 128.367188 135.386719 L 126.539062 134.21875 C 123.832031 132.460938 119.441406 127.632812 118.164062 124.964844 C 116.554688 121.5625 116.113281 118.566406 116.808594 115.238281 C 117.429688 112.199219 118.089844 110.8125 121.5625 105.179688 C 123.613281 101.816406 125.660156 97.902344 126.902344 94.902344 C 128.074219 92.085938 128.730469 88.976562 128.730469 86.308594 C 128.730469 83.820312 128.988281 83.273438 129.753906 84.1875 Z M 130.378906 139.335938 C 132.058594 139.957031 136.519531 140.800781 138.3125 140.800781 C 140.070312 140.800781 143.324219 140.214844 144.640625 139.703125 C 147.492188 138.496094 147.640625 138.933594 145.40625 141.859375 C 142.445312 145.699219 139.777344 147.675781 135.09375 149.429688 C 133.011719 150.234375 131.949219 150.382812 128.730469 150.417969 C 121.050781 150.492188 116.003906 148.1875 111.726562 142.628906 C 109.496094 139.703125 109.53125 139.191406 111.980469 140.214844 C 113.699219 140.945312 116.445312 141.53125 118.050781 141.53125 C 119.808594 141.53125 123.648438 140.691406 126.171875 139.777344 C 128.546875 138.898438 129.097656 138.863281 130.378906 139.335938 Z M 130.378906 139.335938 "/>
<path style=" stroke:none;fill-rule:nonzero;fill:rgb(17.647059%,20%,48.627451%);fill-opacity:1;" d="M 170.972656 78.59375 C 169.835938 79.066406 168.191406 80.859375 167.644531 82.175781 C 167.058594 83.527344 165.777344 84.480469 163.875 85.027344 C 163.144531 85.246094 162.558594 85.648438 162.558594 85.941406 C 162.558594 86.382812 163.144531 86.527344 165.046875 86.601562 L 167.535156 86.710938 L 168.996094 85.136719 C 169.800781 84.261719 171.082031 82.871094 171.886719 82.03125 C 172.835938 81.003906 173.714844 80.421875 174.59375 80.238281 C 176.019531 79.980469 176.566406 79.507812 176.019531 78.957031 C 175.578125 78.519531 171.8125 78.226562 170.972656 78.59375 Z M 170.972656 78.59375 "/>
<path style=" stroke:none;fill-rule:nonzero;fill:rgb(17.647059%,20%,48.627451%);fill-opacity:1;" d="M 78.261719 81.003906 C 77.859375 81.480469 77.96875 81.808594 78.882812 82.945312 C 79.46875 83.675781 80.53125 84.699219 81.226562 85.136719 C 82.503906 86.050781 83.015625 86.050781 87.332031 85.359375 C 88.722656 85.136719 89.050781 85.246094 90.367188 86.308594 C 91.792969 87.441406 92.890625 87.550781 92.890625 86.527344 C 92.890625 86.234375 92.160156 85.210938 91.28125 84.222656 L 89.671875 82.46875 L 86.273438 82.542969 C 82.542969 82.613281 80.894531 82.285156 79.910156 81.1875 C 79.105469 80.3125 78.847656 80.273438 78.261719 81.003906 Z M 78.261719 81.003906 "/>
<path style=" stroke:none;fill-rule:nonzero;fill:rgb(17.647059%,20%,48.627451%);fill-opacity:1;" d="M 174.261719 87.808594 C 173.859375 88.027344 172.507812 89.269531 171.265625 90.550781 C 169.144531 92.746094 168.886719 92.890625 167.351562 92.890625 C 164.460938 92.890625 164.863281 94.390625 167.898438 94.902344 C 169.910156 95.230469 171.738281 94.539062 173.898438 92.527344 C 176.128906 90.40625 176.96875 89.964844 178.613281 89.964844 C 180.957031 89.964844 180.734375 88.796875 178.210938 87.882812 C 176.53125 87.332031 175.25 87.296875 174.261719 87.808594 Z M 174.261719 87.808594 "/>
<path style=" stroke:none;fill-rule:nonzero;fill:rgb(17.647059%,20%,48.627451%);fill-opacity:1;" d="M 75.847656 91.246094 C 75.554688 91.941406 77.164062 93.769531 78.773438 94.609375 C 80.054688 95.269531 82.25 95.011719 84.734375 93.914062 L 86.417969 93.183594 L 88.394531 93.988281 C 89.855469 94.609375 90.476562 94.71875 90.808594 94.390625 C 91.097656 94.097656 90.917969 93.695312 90.113281 92.855469 C 87.917969 90.550781 86.894531 90.367188 81.847656 91.464844 C 79.800781 91.902344 78.847656 91.792969 76.542969 90.84375 C 76.289062 90.734375 75.957031 90.917969 75.847656 91.246094 Z M 75.847656 91.246094 "/>
<path style=" stroke:none;fill-rule:nonzero;fill:rgb(17.647059%,20%,48.627451%);fill-opacity:1;" d="M 175.175781 96.988281 C 174.480469 97.390625 173.496094 98.085938 172.984375 98.558594 C 171.191406 100.207031 169.582031 100.609375 168.265625 99.765625 C 167.460938 99.253906 166.398438 99.621094 166.398438 100.351562 C 166.398438 101.15625 169.179688 102.398438 170.933594 102.398438 C 172.03125 102.398438 173.019531 102.035156 174.628906 101.011719 C 176.457031 99.875 177.226562 99.621094 179.382812 99.472656 C 182.527344 99.253906 182.746094 98.632812 180.113281 97.207031 C 177.921875 96.035156 176.859375 96 175.175781 96.988281 Z M 175.175781 96.988281 "/>
<path style=" stroke:none;fill-rule:nonzero;fill:rgb(17.647059%,20%,48.627451%);fill-opacity:1;" d="M 82.25 99.035156 C 79.800781 100.570312 78.519531 101.011719 76.582031 100.863281 C 74.09375 100.71875 74.203125 101.558594 76.800781 102.875 C 79.617188 104.300781 80.933594 104.007812 84.554688 101.191406 C 85.613281 100.351562 86.125 100.167969 86.929688 100.351562 C 89.308594 100.9375 89.890625 100.972656 90.148438 100.609375 C 90.769531 99.546875 87.953125 98.011719 85.429688 98.011719 C 84.371094 98.011719 83.382812 98.339844 82.25 99.035156 Z M 82.25 99.035156 "/>
<path style=" stroke:none;fill-rule:nonzero;fill:rgb(17.647059%,20%,48.627451%);fill-opacity:1;" d="M 172.800781 106.972656 C 170.128906 108.289062 169.253906 108.324219 167.570312 107.265625 C 166.910156 106.863281 166.621094 106.824219 166.179688 107.191406 C 165.886719 107.410156 165.667969 107.738281 165.667969 107.921875 C 165.667969 108.359375 168.703125 110.371094 169.800781 110.628906 C 170.753906 110.882812 174.628906 109.933594 175.359375 109.277344 C 175.835938 108.875 179.492188 108.910156 179.75 109.347656 C 180.113281 109.933594 181.027344 109.789062 181.285156 109.128906 C 181.503906 108.507812 180.847656 107.8125 178.652344 106.386719 C 177.078125 105.398438 175.726562 105.546875 172.800781 106.972656 Z M 172.800781 106.972656 "/>
<path style=" stroke:none;fill-rule:nonzero;fill:rgb(17.647059%,20%,48.627451%);fill-opacity:1;" d="M 84.332031 106.972656 C 83.75 107.300781 82.652344 108.105469 81.882812 108.761719 C 80.054688 110.445312 79.105469 110.921875 77.164062 111.175781 C 74.789062 111.433594 74.753906 112.382812 77.128906 113.152344 C 80.3125 114.175781 81.003906 113.957031 84.113281 110.957031 C 85.980469 109.164062 86.273438 109.019531 88.136719 108.910156 C 89.671875 108.835938 90.183594 108.652344 90.257812 108.179688 C 90.332031 107.738281 89.964844 107.375 89.015625 106.972656 C 87.332031 106.277344 85.6875 106.277344 84.332031 106.972656 Z M 84.332031 106.972656 "/>
<path style=" stroke:none;fill-rule:nonzero;fill:rgb(17.647059%,20%,48.627451%);fill-opacity:1;" d="M 164.316406 115.417969 C 164.167969 115.820312 164.679688 116.554688 165.777344 117.6875 L 167.460938 119.332031 L 169.949219 119.222656 C 175.761719 118.929688 176.894531 119.003906 177.699219 119.734375 C 178.503906 120.464844 179.566406 120.320312 179.566406 119.480469 C 179.566406 119.1875 178.761719 118.199219 177.738281 117.246094 C 176.164062 115.785156 175.726562 115.566406 174.371094 115.566406 C 173.496094 115.601562 172.140625 115.820312 171.335938 116.113281 C 169.214844 116.882812 167.863281 116.773438 166.328125 115.75 C 164.753906 114.6875 164.609375 114.652344 164.316406 115.417969 Z M 164.316406 115.417969 "/>
<path style=" stroke:none;fill-rule:nonzero;fill:rgb(17.647059%,20%,48.627451%);fill-opacity:1;" d="M 86.855469 115.710938 C 86.273438 115.96875 84.957031 117.136719 84.003906 118.273438 C 82.324219 120.246094 80.421875 121.417969 78.957031 121.417969 C 78.078125 121.417969 77.75 122.074219 78.261719 122.695312 C 78.59375 123.0625 79.46875 123.246094 81.078125 123.246094 C 83.894531 123.246094 84.847656 122.695312 86.675781 119.992188 C 87.992188 118.089844 89.160156 117.394531 91.136719 117.394531 C 92.234375 117.394531 92.890625 116.515625 92.269531 115.894531 C 91.648438 115.273438 88.0625 115.125 86.855469 115.710938 Z M 86.855469 115.710938 "/>
<path style=" stroke:none;fill-rule:nonzero;fill:rgb(17.647059%,20%,48.627451%);fill-opacity:1;" d="M 161.792969 121.5625 C 161.5 122.332031 162.960938 124.890625 164.167969 125.769531 C 164.753906 126.207031 165.707031 126.539062 166.289062 126.539062 C 168.8125 126.539062 171.738281 127.339844 173.09375 128.4375 C 174.371094 129.425781 175.542969 129.609375 175.542969 128.804688 C 175.542969 128.621094 175.140625 127.707031 174.628906 126.792969 C 173.238281 124.34375 172.25 123.832031 168.777344 123.792969 C 165.667969 123.757812 164.902344 123.5 163.511719 122.003906 C 162.488281 120.941406 162.085938 120.832031 161.792969 121.5625 Z M 161.792969 121.5625 "/>
<path style=" stroke:none;fill-rule:nonzero;fill:rgb(17.647059%,20%,48.627451%);fill-opacity:1;" d="M 90.84375 122.292969 C 89.710938 122.808594 87.40625 125.292969 87.40625 125.988281 C 87.40625 126.828125 84.773438 129.460938 83.640625 129.753906 C 82.835938 129.976562 82.46875 130.265625 82.46875 130.78125 C 82.46875 131.402344 82.6875 131.472656 84.847656 131.363281 C 86.164062 131.292969 87.550781 131 87.992188 130.742188 C 88.613281 130.339844 89.5625 128.695312 91.0625 125.441406 C 91.320312 124.890625 92.050781 124.453125 94.171875 123.539062 C 94.792969 123.28125 95.269531 122.808594 95.269531 122.515625 C 95.269531 121.78125 92.34375 121.636719 90.84375 122.292969 Z M 90.84375 122.292969 "/>
<path style=" stroke:none;fill-rule:nonzero;fill:rgb(17.647059%,20%,48.627451%);fill-opacity:1;" d="M 157.039062 127.085938 C 156.78125 127.671875 157.476562 129.976562 158.246094 131.183594 C 158.867188 132.097656 161.242188 133.265625 163.292969 133.632812 C 164.386719 133.851562 165.191406 134.363281 166.507812 135.753906 C 167.644531 136.921875 168.484375 137.472656 168.851562 137.363281 C 169.214844 137.214844 169.324219 136.921875 169.144531 136.484375 C 168.996094 136.15625 168.742188 135.3125 168.59375 134.65625 C 167.9375 131.984375 166.289062 130.742188 162.742188 130.304688 C 160.839844 130.085938 159.304688 128.949219 158.71875 127.414062 C 158.355469 126.425781 157.332031 126.246094 157.039062 127.085938 Z M 157.039062 127.085938 "/>
<path style=" stroke:none;fill-rule:nonzero;fill:rgb(17.647059%,20%,48.627451%);fill-opacity:1;" d="M 77.421875 144.75 C 76.835938 145.371094 76.984375 145.664062 80.457031 150.164062 C 82.46875 152.757812 84.078125 155.136719 84.003906 155.429688 C 83.820312 156.636719 82.761719 155.792969 80.089844 152.320312 C 78.554688 150.308594 77.019531 148.625 76.652344 148.554688 C 75.8125 148.371094 75.042969 149.066406 74.386719 150.601562 C 73.546875 152.613281 73.726562 153.601562 75.191406 155.097656 C 76.617188 156.5625 76.582031 157.257812 75.042969 157.257812 C 73.507812 157.21875 72.484375 156.195312 72.339844 154.550781 C 72.191406 152.867188 71.3125 152.101562 70.328125 152.722656 C 69.449219 153.269531 69.304688 154.953125 70.035156 155.792969 C 70.507812 156.34375 70.621094 157 70.546875 158.792969 C 70.398438 161.023438 70.4375 161.097656 71.3125 161.097656 C 72.082031 161.097656 72.265625 160.878906 72.410156 159.816406 C 72.558594 158.902344 72.777344 158.574219 73.144531 158.683594 C 75.300781 159.304688 76.507812 159.160156 77.566406 158.136719 C 78.996094 156.78125 78.921875 156.050781 77.164062 154.660156 C 75.628906 153.417969 75.335938 152.394531 76.179688 151.296875 C 76.582031 150.746094 76.875 151.039062 78.996094 153.855469 C 80.3125 155.648438 81.371094 157.183594 81.371094 157.292969 C 81.371094 157.441406 79.761719 158.757812 77.789062 160.21875 C 74.238281 162.816406 73.765625 163.546875 75.007812 164.316406 C 75.554688 164.679688 77.019531 163.695312 83.601562 158.464844 C 85.46875 156.964844 85.578125 156.929688 85.941406 157.621094 C 86.382812 158.464844 87.148438 158.574219 87.734375 157.84375 C 88.0625 157.476562 87.1875 156.050781 83.527344 151.1875 C 77.75 143.46875 78.191406 143.910156 77.421875 144.75 Z M 77.421875 144.75 "/>
<path style=" stroke:none;fill-rule:nonzero;fill:rgb(17.647059%,20%,48.627451%);fill-opacity:1;" d="M 170.570312 153.601562 C 167.242188 157.148438 165.265625 158.902344 162.816406 160.511719 C 159.050781 163 150.636719 167.3125 148.554688 167.828125 C 147.820312 168.046875 146.613281 168.339844 145.921875 168.519531 C 144.347656 168.921875 142.996094 169.617188 142.996094 170.019531 C 142.996094 170.203125 143.25 170.53125 143.542969 170.789062 C 143.980469 171.152344 144.199219 171.152344 144.640625 170.789062 C 145.519531 170.058594 146.101562 170.605469 146.613281 172.652344 C 146.871094 173.75 147.199219 175.03125 147.382812 175.542969 C 147.527344 176.054688 148.042969 177.773438 148.480469 179.382812 C 148.917969 180.992188 149.429688 182.453125 149.578125 182.601562 C 149.722656 182.746094 150.234375 182.710938 150.746094 182.527344 C 151.699219 182.164062 151.699219 182.164062 151.148438 180.589844 C 150.820312 179.710938 150.453125 178.503906 150.308594 177.921875 C 150.125 177.296875 149.578125 175.359375 149.027344 173.605469 C 148.003906 170.058594 148.078125 169.582031 149.871094 169.214844 C 150.417969 169.105469 151.257812 168.886719 151.769531 168.777344 C 152.648438 168.558594 152.796875 168.703125 153.671875 170.679688 C 154.917969 173.421875 155.757812 174.191406 157.621094 174.191406 C 158.757812 174.191406 159.378906 173.933594 160.21875 173.128906 C 161.644531 171.738281 161.644531 170.019531 160.144531 167.3125 C 159.230469 165.667969 159.121094 165.15625 159.453125 164.71875 C 159.707031 164.460938 160.109375 164.207031 160.367188 164.207031 C 160.621094 164.207031 161.023438 163.949219 161.28125 163.65625 C 161.535156 163.363281 161.9375 163.109375 162.15625 163.109375 C 162.414062 163.109375 164.058594 165.230469 165.816406 167.828125 C 169.65625 173.53125 169.800781 173.675781 170.789062 172.800781 C 171.445312 172.214844 171.445312 172.070312 171.007812 171.554688 C 170.714844 171.226562 169.144531 168.921875 167.496094 166.4375 L 164.460938 161.863281 L 165.632812 160.949219 C 166.289062 160.4375 167.386719 159.453125 168.117188 158.792969 L 169.472656 157.585938 L 170.898438 159.011719 C 172.179688 160.292969 172.289062 160.511719 171.847656 161.207031 C 171.082031 162.449219 171.996094 163.183594 174.191406 163.035156 C 176.53125 162.890625 177.296875 161.976562 175.910156 160.914062 L 174.996094 160.21875 L 176.53125 158.648438 L 178.101562 157.074219 L 180.480469 159.453125 L 182.855469 161.792969 L 183.660156 161.023438 L 184.429688 160.21875 L 181.359375 157.367188 C 179.675781 155.792969 177.554688 153.820312 176.640625 152.976562 C 175.03125 151.480469 175.03125 151.441406 175.6875 150.710938 C 176.238281 150.089844 176.273438 149.871094 175.910156 149.394531 C 175.652344 149.101562 175.359375 148.847656 175.214844 148.847656 C 175.105469 148.847656 172.984375 151.003906 170.570312 153.601562 Z M 175.066406 154.40625 C 175.726562 155.0625 176.273438 155.722656 176.273438 155.941406 C 176.273438 156.453125 174.042969 158.71875 173.53125 158.71875 C 173.3125 158.71875 172.582031 158.136719 171.886719 157.441406 L 170.640625 156.160156 L 172.070312 154.695312 C 172.835938 153.890625 173.566406 153.234375 173.675781 153.234375 C 173.789062 153.234375 174.410156 153.746094 175.066406 154.40625 Z M 158.355469 168.449219 C 159.597656 171.007812 159.632812 171.777344 158.648438 172.398438 C 157.660156 172.984375 156.964844 172.359375 155.539062 169.691406 C 154.878906 168.410156 154.332031 167.277344 154.332031 167.242188 C 154.332031 167.132812 156.5625 166.109375 156.929688 166.070312 C 157.074219 166.035156 157.695312 167.132812 158.355469 168.449219 Z M 158.355469 168.449219 "/>
<path style=" stroke:none;fill-rule:nonzero;fill:rgb(17.647059%,20%,48.627451%);fill-opacity:1;" d="M 88.503906 158.316406 C 87.992188 159.304688 88.027344 159.414062 89.050781 159.816406 C 89.5625 160 89.964844 160.367188 89.964844 160.621094 C 89.964844 160.878906 88.285156 163.292969 86.273438 165.996094 C 82.796875 170.640625 82.652344 170.933594 83.238281 171.554688 C 83.601562 171.957031 83.96875 172.25 84.113281 172.25 C 84.371094 172.25 87.917969 167.570312 90.257812 164.132812 C 91.722656 161.976562 92.050781 161.792969 92.855469 162.523438 C 93.21875 162.851562 93.621094 163.109375 93.769531 163.109375 C 93.914062 163.109375 94.757812 163.585938 95.632812 164.207031 C 96.511719 164.789062 97.316406 165.304688 97.460938 165.304688 C 97.574219 165.304688 98.304688 165.707031 99.109375 166.21875 C 99.914062 166.730469 100.789062 167.132812 101.082031 167.132812 C 101.632812 167.132812 104.230469 168.519531 104.230469 168.8125 C 104.230469 169.070312 101.375 176.347656 100.425781 178.542969 C 99.65625 180.261719 99.695312 180.554688 100.609375 181.027344 C 101.449219 181.503906 102.398438 180.957031 102.398438 180.078125 C 102.398438 179.492188 104.519531 173.859375 105.363281 172.179688 C 105.546875 171.8125 105.691406 171.300781 105.691406 171.042969 C 105.691406 170.789062 105.910156 170.238281 106.203125 169.875 C 106.605469 169.324219 106.824219 169.253906 107.191406 169.582031 C 107.484375 169.800781 108.359375 170.09375 109.164062 170.238281 C 111.433594 170.679688 111.507812 170.824219 110.703125 173.789062 C 110.335938 175.25 109.859375 177.117188 109.714844 177.921875 C 109.53125 178.722656 109.128906 180.1875 108.800781 181.175781 C 108.179688 183.039062 108.25 183.332031 109.640625 183.769531 C 110.152344 183.917969 110.480469 183.84375 110.59375 183.515625 C 111.03125 182.089844 112.785156 174.410156 112.96875 173.164062 C 113.152344 171.886719 113.335938 171.703125 114.101562 171.738281 C 116.296875 171.777344 123.136719 172.726562 123.832031 173.054688 C 124.378906 173.3125 125.878906 173.277344 128.546875 172.945312 C 133.449219 172.398438 133.558594 172.472656 133.414062 176.824219 L 133.304688 179.75 L 131.914062 180.445312 C 130.523438 181.101562 130.523438 181.101562 129.609375 180.261719 C 128.367188 179.089844 128.402344 177.226562 129.683594 176.382812 C 130.488281 175.871094 130.742188 175.871094 131.363281 176.238281 C 132.351562 176.859375 132.972656 176.273438 132.425781 175.214844 C 132.097656 174.628906 131.65625 174.445312 130.632812 174.445312 C 128.988281 174.445312 127.890625 175.140625 127.121094 176.714844 C 126.207031 178.503906 126.390625 179.710938 127.742188 181.175781 C 129.207031 182.710938 130.597656 183.148438 131.949219 182.453125 C 133.484375 181.722656 133.667969 181.832031 133.851562 183.589844 C 133.996094 184.941406 134.179688 185.269531 134.875 185.34375 C 135.3125 185.417969 135.753906 185.234375 135.863281 184.976562 C 135.972656 184.722656 135.828125 181.941406 135.570312 178.835938 C 135.3125 175.726562 135.167969 173.054688 135.277344 172.910156 C 135.386719 172.761719 135.972656 172.617188 136.59375 172.542969 C 137.65625 172.433594 137.65625 172.433594 138.277344 175.359375 C 138.789062 177.847656 139.042969 178.394531 140.105469 179.273438 C 141.566406 180.515625 143.398438 180.625 145.117188 179.566406 C 146.359375 178.796875 146.433594 178.542969 146.066406 176.640625 C 145.847656 175.726562 145.296875 175.140625 143.25 173.789062 C 140.800781 172.140625 140.761719 172.070312 141.496094 171.59375 C 142.300781 171.042969 142.519531 170.238281 141.933594 169.875 C 141.714844 169.765625 140.359375 169.910156 138.898438 170.238281 C 134.691406 171.117188 134.765625 171.152344 131.21875 167.605469 C 128.074219 164.460938 128 164.425781 127.269531 165.121094 C 126.867188 165.484375 126.539062 165.886719 126.539062 166.035156 C 126.539062 166.21875 127.78125 167.277344 129.28125 168.449219 C 130.816406 169.582031 131.914062 170.679688 131.765625 170.789062 C 131.363281 171.191406 124.378906 171.519531 124.160156 171.191406 C 124.085938 171.007812 122.808594 170.789062 121.34375 170.640625 C 117.941406 170.3125 115.089844 169.835938 113.003906 169.324219 C 112.089844 169.105469 110.882812 168.8125 110.261719 168.742188 C 109.675781 168.628906 108.472656 168.230469 107.628906 167.828125 C 106.753906 167.460938 105.910156 167.132812 105.691406 167.132812 C 105.070312 167.132812 102.4375 165.925781 99.875 164.5 C 99.144531 164.058594 97.828125 163.328125 96.914062 162.816406 C 96 162.339844 93.914062 160.949219 92.234375 159.78125 C 90.585938 158.574219 89.160156 157.621094 89.050781 157.621094 C 88.976562 157.621094 88.722656 157.953125 88.503906 158.316406 Z M 142.773438 175.25 C 143.871094 176.128906 144.785156 177.042969 144.785156 177.261719 C 144.824219 177.882812 143.175781 178.90625 142.410156 178.761719 C 142.078125 178.6875 141.496094 178.25 141.128906 177.738281 C 140.324219 176.640625 139.777344 173.714844 140.398438 173.714844 C 140.617188 173.714844 141.714844 174.410156 142.773438 175.25 Z M 142.773438 175.25 "/>
<path style=" stroke:none;fill-rule:nonzero;fill:rgb(17.647059%,20%,48.627451%);fill-opacity:1;" d="M 186.550781 160.949219 C 184.320312 161.242188 183.589844 161.644531 183.589844 162.632812 C 183.589844 163.21875 184.867188 163.183594 187.613281 162.632812 C 189.21875 162.265625 189.621094 162.046875 189.621094 161.5 C 189.621094 160.621094 189.402344 160.585938 186.550781 160.949219 Z M 186.550781 160.949219 "/>
<path style=" stroke:none;fill-rule:nonzero;fill:rgb(17.647059%,20%,48.627451%);fill-opacity:1;" d="M 93.988281 167.679688 C 93.257812 168.558594 94.28125 172.433594 95.269531 172.433594 C 95.671875 172.433594 96.144531 172.070312 96.402344 171.59375 C 97.023438 170.3125 97.097656 170.3125 99.109375 171.554688 C 100.972656 172.691406 101.046875 172.726562 101.523438 172.070312 C 102.179688 171.191406 101.925781 170.933594 98.558594 169.144531 C 97.171875 168.375 95.855469 167.605469 95.671875 167.460938 C 95.121094 166.984375 94.5 167.058594 93.988281 167.679688 Z M 93.988281 167.679688 "/>
<path style=" stroke:none;fill-rule:nonzero;fill:rgb(17.647059%,20%,48.627451%);fill-opacity:1;" d="M 117.578125 175.652344 C 117.285156 176.347656 117.871094 177.699219 119.148438 179.199219 C 120.101562 180.296875 120.320312 180.40625 120.832031 179.96875 C 121.160156 179.675781 121.378906 179.054688 121.34375 178.503906 C 121.234375 177.554688 121.269531 177.554688 123.613281 177.554688 C 125.734375 177.554688 125.988281 177.480469 125.988281 176.824219 C 125.988281 176.019531 125.148438 175.761719 120.6875 175.398438 C 118.34375 175.175781 117.722656 175.214844 117.578125 175.652344 Z M 117.578125 175.652344 "/>
<path style=" stroke:none;fill-rule:nonzero;fill:rgb(17.647059%,20%,48.627451%);fill-opacity:1;" d="M 125.988281 204.945312 C 121.601562 206.152344 119.808594 211.859375 122.695312 215.589844 C 124.015625 217.34375 125.621094 218.113281 128 218.113281 C 130.488281 218.148438 132.132812 217.269531 133.667969 215.078125 C 135.9375 211.859375 134.691406 207.066406 131.183594 205.53125 C 129.0625 204.617188 127.671875 204.472656 125.988281 204.945312 Z M 125.988281 204.945312 "/>
<path style=" stroke:none;fill-rule:nonzero;fill:rgb(17.647059%,20%,48.627451%);fill-opacity:1;" d="M 204.324219 50.90625 C 203.042969 51.601562 202.972656 51.710938 203.445312 52.40625 C 204.214844 53.613281 204.617188 53.539062 205.640625 51.96875 C 206.957031 49.957031 206.664062 49.699219 204.324219 50.90625 Z M 204.324219 50.90625 "/>
<path style=" stroke:none;fill-rule:nonzero;fill:rgb(17.647059%,20%,48.627451%);fill-opacity:1;" d="M 220.34375 68.972656 C 219.941406 69.304688 218.40625 70.109375 216.976562 70.839844 C 215.515625 71.570312 214.308594 72.375 214.308594 72.667969 C 214.308594 72.960938 214.746094 73.582031 215.257812 74.128906 C 216.0625 74.933594 216.429688 75.042969 218.003906 74.898438 C 219.464844 74.753906 220.125 74.460938 221.109375 73.472656 C 222.28125 72.375 222.390625 72.082031 222.246094 70.800781 C 221.988281 68.902344 221.332031 68.242188 220.34375 68.972656 Z M 220.34375 68.972656 "/>
<path style=" stroke:none;fill-rule:nonzero;fill:rgb(17.647059%,20%,48.627451%);fill-opacity:1;" d="M 31.855469 76.289062 C 31.414062 76.835938 31.085938 77.675781 31.085938 78.152344 C 31.085938 79.945312 34.449219 82.285156 37.046875 82.285156 C 38.984375 82.285156 39.898438 78.738281 38.328125 77.277344 C 35.984375 75.152344 33.097656 74.714844 31.855469 76.289062 Z M 31.855469 76.289062 "/>
<path style=" stroke:none;fill-rule:nonzero;fill:rgb(17.647059%,20%,48.627451%);fill-opacity:1;" d="M 226.121094 86.527344 C 225.460938 86.820312 224.914062 87.113281 224.914062 87.148438 C 224.914062 87.660156 226.195312 89.671875 226.558594 89.855469 C 228.058594 90.40625 229.082031 88.355469 228.207031 86.636719 C 227.765625 85.832031 227.695312 85.832031 226.121094 86.527344 Z M 226.121094 86.527344 "/>
<path style=" stroke:none;fill-rule:nonzero;fill:rgb(17.647059%,20%,48.627451%);fill-opacity:1;" d="M 224.621094 131.730469 C 224.367188 131.984375 224.183594 132.460938 224.183594 132.828125 C 224.183594 133.375 224.511719 133.484375 226.046875 133.484375 C 228.132812 133.484375 228.277344 133.011719 226.523438 131.984375 C 225.207031 131.183594 225.171875 131.183594 224.621094 131.730469 Z M 224.621094 131.730469 "/>
<path style=" stroke:none;fill-rule:nonzero;fill:rgb(17.647059%,20%,48.627451%);fill-opacity:1;" d="M 223.925781 144.75 C 223.339844 145.992188 223.339844 146.03125 224.144531 146.6875 C 225.351562 147.675781 225.828125 147.566406 226.707031 146.066406 C 227.621094 144.566406 227.585938 144.492188 225.828125 143.871094 C 224.546875 143.433594 224.546875 143.46875 223.925781 144.75 Z M 223.925781 144.75 "/>
<path style=" stroke:none;fill-rule:nonzero;fill:rgb(17.647059%,20%,48.627451%);fill-opacity:1;" d="M 187.976562 187.136719 C 187.355469 187.941406 187.210938 188.488281 187.355469 189.550781 C 187.613281 191.339844 189.109375 193.644531 190.539062 194.378906 C 191.523438 194.890625 191.742188 194.890625 192.730469 194.378906 C 194.851562 193.28125 194.632812 190.316406 192.21875 187.792969 C 190.355469 185.820312 189.148438 185.636719 187.976562 187.136719 Z M 187.976562 187.136719 "/>
<path style=" stroke:none;fill-rule:nonzero;fill:rgb(17.647059%,20%,48.627451%);fill-opacity:1;" d="M 70.21875 192.546875 C 69.59375 194.195312 69.414062 195.292969 69.707031 195.292969 C 69.886719 195.253906 70.582031 194.78125 71.277344 194.195312 C 72.519531 193.132812 72.519531 193.097656 71.863281 192.367188 C 70.984375 191.414062 70.65625 191.453125 70.21875 192.546875 Z M 70.21875 192.546875 "/>
<path style=" stroke:none;fill-rule:nonzero;fill:rgb(17.647059%,20%,48.627451%);fill-opacity:1;" d="M 168.410156 201.65625 C 167.789062 202.09375 167.789062 202.203125 168.8125 203.484375 C 169.398438 204.214844 170.019531 204.800781 170.167969 204.800781 C 170.351562 204.800781 170.386719 204.105469 170.238281 203.226562 C 169.835938 200.921875 169.65625 200.742188 168.410156 201.65625 Z M 168.410156 201.65625 "/>
<path style=" stroke:none;fill-rule:nonzero;fill:rgb(17.647059%,20%,48.627451%);fill-opacity:1;" d="M 83.894531 199.753906 C 82.652344 201.105469 81.921875 202.605469 81.921875 203.847656 C 81.921875 204.761719 83.75 206.996094 84.445312 206.996094 C 84.882812 206.996094 88.136719 200.339844 88.136719 199.496094 C 88.136719 198.910156 87.332031 198.582031 85.980469 198.582031 C 85.320312 198.582031 84.625 198.984375 83.894531 199.753906 Z M 83.894531 199.753906 "/>
<path style=" stroke:none;fill-rule:nonzero;fill:rgb(17.647059%,20%,48.627451%);fill-opacity:1;" d="M 40.007812 238.957031 C 39.898438 239.25 39.863281 240.089844 39.9375 240.859375 C 40.046875 242.101562 40.15625 242.285156 41.070312 242.394531 C 41.691406 242.46875 42.421875 242.25 42.824219 241.882812 C 43.59375 241.1875 43.738281 239.542969 43.082031 238.882812 C 42.460938 238.261719 40.265625 238.335938 40.007812 238.957031 Z M 40.007812 238.957031 "/>
<path style=" stroke:none;fill-rule:nonzero;fill:rgb(17.647059%,20%,48.627451%);fill-opacity:1;" d="M 61.695312 238.703125 C 61.550781 238.8125 61.441406 239.578125 61.441406 240.347656 L 61.441406 241.738281 L 63.195312 241.738281 C 65.097656 241.738281 65.828125 241.296875 65.828125 240.089844 C 65.828125 239.652344 65.644531 239.140625 65.390625 238.882812 C 64.914062 238.410156 62.097656 238.261719 61.695312 238.703125 Z M 61.695312 238.703125 "/>
<path style=" stroke:none;fill-rule:nonzero;fill:rgb(17.647059%,20%,48.627451%);fill-opacity:1;" d="M 113.003906 239.578125 C 112.3125 240.53125 112.199219 241.078125 112.347656 243.382812 C 112.457031 245.613281 112.601562 246.234375 113.335938 247.003906 C 114.394531 248.101562 115.417969 248.210938 116.589844 247.296875 C 117.6875 246.453125 118.125 244.480469 117.796875 241.699219 C 117.46875 239.140625 116.882812 238.445312 114.980469 238.445312 C 114.066406 238.445312 113.589844 238.703125 113.003906 239.578125 Z M 113.003906 239.578125 "/>
<path style=" stroke:none;fill-rule:nonzero;fill:rgb(17.647059%,20%,48.627451%);fill-opacity:1;" d="M 162.121094 238.738281 C 160.839844 239.542969 160.109375 243.820312 160.949219 245.503906 C 162.265625 248.027344 163.875 248.574219 165.339844 247.003906 C 166.109375 246.164062 166.21875 245.722656 166.21875 243.015625 C 166.21875 240.566406 166.070312 239.835938 165.523438 239.214844 C 164.828125 238.445312 163 238.191406 162.121094 238.738281 Z M 162.121094 238.738281 "/>
<path style=" stroke:none;fill-rule:nonzero;fill:rgb(17.647059%,20%,48.627451%);fill-opacity:1;" d="M 207.980469 238.703125 C 207.835938 238.8125 207.726562 240.96875 207.726562 243.492188 C 207.726562 248.027344 207.726562 248.027344 208.566406 247.808594 C 209.003906 247.699219 209.664062 247.589844 210.03125 247.589844 C 210.359375 247.589844 210.980469 247.257812 211.382812 246.855469 C 212.003906 246.234375 212.113281 245.648438 212.113281 243.089844 C 212.113281 240.382812 212.003906 239.945312 211.273438 239.25 C 210.46875 238.480469 208.492188 238.152344 207.980469 238.703125 Z M 207.980469 238.703125 "/>
</g>
</svg>
